<!-- Generator: Adobe Illustrator 18.0.0, SVG Export Plug-In  -->
<svg version="1.1"
	 xmlns="http://www.w3.org/2000/svg" xmlns:xlink="http://www.w3.org/1999/xlink" xmlns:a="http://ns.adobe.com/AdobeSVGViewerExtensions/3.0/"
	 x="0px" y="0px" width="835.7px" height="835.9px" viewBox="0 0 835.7 835.9" enable-background="new 0 0 835.7 835.9"
	 xml:space="preserve">
<defs>
</defs>
<g>
	<g>
		<g>
			<g>
				<circle fill="#D7DADB" cx="472.7" cy="831.5" r="4.5"/>
			</g>
			<g>
				<circle fill="#D7DADB" cx="450.3" cy="831.5" r="4.5"/>
			</g>
		</g>
		<g>
			<g>
				<circle fill="#D7DADB" cx="652" cy="809.1" r="4.5"/>
			</g>
			<g>
				<circle fill="#D7DADB" cx="584.8" cy="809.1" r="4.5"/>
			</g>
			<g>
				<circle fill="#D7DADB" cx="562.4" cy="809.1" r="4.5"/>
			</g>
			<g>
				<circle fill="#D7DADB" cx="540" cy="809.1" r="4.5"/>
			</g>
			<g>
				<circle fill="#D7DADB" cx="517.6" cy="809.1" r="4.5"/>
			</g>
			<g>
				<circle fill="#D7DADB" cx="495.2" cy="809.1" r="4.5"/>
			</g>
			<g>
				<circle fill="#D7DADB" cx="472.7" cy="809.1" r="4.5"/>
			</g>
			<g>
				<circle fill="#D7DADB" cx="450.3" cy="809.1" r="4.5"/>
			</g>
		</g>
		<g>
			<g>
				<circle fill="#D7DADB" cx="741.6" cy="786.7" r="4.5"/>
			</g>
			<g>
				<circle fill="#D7DADB" cx="719.2" cy="786.7" r="4.5"/>
			</g>
			<g>
				<circle fill="#D7DADB" cx="696.8" cy="786.7" r="4.5"/>
			</g>
			<g>
				<circle fill="#D7DADB" cx="674.4" cy="786.7" r="4.5"/>
			</g>
			<g>
				<circle fill="#D7DADB" cx="652" cy="786.7" r="4.5"/>
			</g>
			<g>
				<circle fill="#D7DADB" cx="629.6" cy="786.7" r="4.5"/>
			</g>
			<g>
				<circle fill="#D7DADB" cx="607.2" cy="786.7" r="4.5"/>
			</g>
			<g>
				<circle fill="#D7DADB" cx="584.8" cy="786.7" r="4.5"/>
			</g>
			<g>
				<circle fill="#D7DADB" cx="562.4" cy="786.7" r="4.5"/>
			</g>
			<g>
				<circle fill="#D7DADB" cx="540" cy="786.7" r="4.5"/>
			</g>
			<g>
				<circle fill="#D7DADB" cx="517.6" cy="786.7" r="4.5"/>
			</g>
			<g>
				<circle fill="#D7DADB" cx="495.2" cy="786.7" r="4.5"/>
			</g>
			<g>
				<circle fill="#D7DADB" cx="472.7" cy="786.7" r="4.5"/>
			</g>
		</g>
		<g>
			<g>
				<circle fill="#D7DADB" cx="764" cy="764.2" r="4.5"/>
			</g>
			<g>
				<circle fill="#D7DADB" cx="741.6" cy="764.2" r="4.5"/>
			</g>
			<g>
				<circle fill="#D7DADB" cx="719.2" cy="764.2" r="4.5"/>
			</g>
			<g>
				<circle fill="#D7DADB" cx="696.8" cy="764.2" r="4.5"/>
			</g>
			<g>
				<circle fill="#D7DADB" cx="674.4" cy="764.2" r="4.5"/>
			</g>
			<g>
				<circle fill="#D7DADB" cx="652" cy="764.2" r="4.5"/>
			</g>
			<g>
				<circle fill="#D7DADB" cx="629.6" cy="764.2" r="4.5"/>
			</g>
			<g>
				<circle fill="#D7DADB" cx="607.2" cy="764.2" r="4.5"/>
			</g>
			<g>
				<circle fill="#D7DADB" cx="584.8" cy="764.2" r="4.5"/>
			</g>
			<g>
				<circle fill="#D7DADB" cx="562.4" cy="764.2" r="4.5"/>
			</g>
			<g>
				<circle fill="#D7DADB" cx="540" cy="764.2" r="4.5"/>
			</g>
			<g>
				<circle fill="#D7DADB" cx="517.6" cy="764.2" r="4.5"/>
			</g>
			<g>
				<circle fill="#D7DADB" cx="495.2" cy="764.2" r="4.5"/>
			</g>
			<g>
				<circle fill="#D7DADB" cx="472.7" cy="764.2" r="4.5"/>
			</g>
		</g>
		<g>
			<g>
				<circle fill="#D7DADB" cx="786.4" cy="741.8" r="4.5"/>
			</g>
			<g>
				<circle fill="#D7DADB" cx="764" cy="741.8" r="4.5"/>
			</g>
			<g>
				<circle fill="#D7DADB" cx="741.6" cy="741.8" r="4.5"/>
			</g>
			<g>
				<circle fill="#D7DADB" cx="719.2" cy="741.8" r="4.5"/>
			</g>
			<g>
				<circle fill="#D7DADB" cx="696.8" cy="741.8" r="4.5"/>
			</g>
			<g>
				<circle fill="#D7DADB" cx="674.4" cy="741.8" r="4.5"/>
			</g>
			<g>
				<circle fill="#D7DADB" cx="652" cy="741.8" r="4.5"/>
			</g>
			<g>
				<circle fill="#D7DADB" cx="629.6" cy="741.8" r="4.5"/>
			</g>
			<g>
				<circle fill="#D7DADB" cx="607.2" cy="741.8" r="4.5"/>
			</g>
			<g>
				<circle fill="#D7DADB" cx="584.8" cy="741.8" r="4.5"/>
			</g>
			<g>
				<circle fill="#D7DADB" cx="562.4" cy="741.8" r="4.5"/>
			</g>
			<g>
				<circle fill="#D7DADB" cx="540" cy="741.8" r="4.5"/>
			</g>
			<g>
				<circle fill="#D7DADB" cx="517.6" cy="741.8" r="4.5"/>
			</g>
			<g>
				<circle fill="#D7DADB" cx="495.2" cy="741.8" r="4.5"/>
			</g>
			<g>
				<circle fill="#D7DADB" cx="472.7" cy="741.8" r="4.5"/>
			</g>
		</g>
		<g>
			<g>
				<circle fill="#D7DADB" cx="786.4" cy="719.4" r="4.5"/>
			</g>
			<g>
				<circle fill="#D7DADB" cx="764" cy="719.4" r="4.5"/>
			</g>
			<g>
				<circle fill="#D7DADB" cx="741.6" cy="719.4" r="4.5"/>
			</g>
			<g>
				<circle fill="#D7DADB" cx="719.2" cy="719.4" r="4.5"/>
			</g>
			<g>
				<circle fill="#D7DADB" cx="696.8" cy="719.4" r="4.5"/>
			</g>
			<g>
				<circle fill="#D7DADB" cx="674.4" cy="719.4" r="4.5"/>
			</g>
			<g>
				<circle fill="#D7DADB" cx="652" cy="719.4" r="4.5"/>
			</g>
			<g>
				<circle fill="#D7DADB" cx="629.6" cy="719.4" r="4.5"/>
			</g>
			<g>
				<circle fill="#D7DADB" cx="607.2" cy="719.4" r="4.5"/>
			</g>
			<g>
				<circle fill="#D7DADB" cx="584.8" cy="719.4" r="4.5"/>
			</g>
			<g>
				<circle fill="#D7DADB" cx="562.4" cy="719.4" r="4.5"/>
			</g>
			<g>
				<circle fill="#D7DADB" cx="540" cy="719.4" r="4.5"/>
			</g>
			<g>
				<circle fill="#D7DADB" cx="517.6" cy="719.4" r="4.5"/>
			</g>
			<g>
				<circle fill="#D7DADB" cx="495.2" cy="719.4" r="4.5"/>
			</g>
			<g>
				<circle fill="#D7DADB" cx="472.7" cy="719.4" r="4.5"/>
			</g>
		</g>
		<g>
			<g>
				<circle fill="#D7DADB" cx="786.4" cy="697" r="4.5"/>
			</g>
			<g>
				<circle fill="#D7DADB" cx="764" cy="697" r="4.5"/>
			</g>
			<g>
				<circle fill="#D7DADB" cx="741.6" cy="697" r="4.5"/>
			</g>
			<g>
				<circle fill="#D7DADB" cx="719.2" cy="697" r="4.5"/>
			</g>
			<g>
				<circle fill="#D7DADB" cx="696.8" cy="697" r="4.5"/>
			</g>
			<g>
				<circle fill="#D7DADB" cx="674.4" cy="697" r="4.5"/>
			</g>
			<g>
				<circle fill="#D7DADB" cx="652" cy="697" r="4.5"/>
			</g>
			<g>
				<circle fill="#D7DADB" cx="629.6" cy="697" r="4.5"/>
			</g>
			<g>
				<circle fill="#D7DADB" cx="607.2" cy="697" r="4.5"/>
			</g>
			<g>
				<circle fill="#D7DADB" cx="584.8" cy="697" r="4.5"/>
			</g>
			<g>
				<circle fill="#D7DADB" cx="562.4" cy="697" r="4.5"/>
			</g>
			<g>
				<circle fill="#D7DADB" cx="540" cy="697" r="4.5"/>
			</g>
			<g>
				<circle fill="#D7DADB" cx="517.6" cy="697" r="4.5"/>
			</g>
			<g>
				<circle fill="#D7DADB" cx="495.2" cy="697" r="4.5"/>
			</g>
			<g>
				<circle fill="#D7DADB" cx="472.7" cy="697" r="4.5"/>
			</g>
		</g>
		<g>
			<g>
				<circle fill="#D7DADB" cx="808.8" cy="674.6" r="4.5"/>
			</g>
			<g>
				<circle fill="#D7DADB" cx="786.4" cy="674.6" r="4.5"/>
			</g>
			<g>
				<circle fill="#D7DADB" cx="764" cy="674.6" r="4.5"/>
			</g>
			<g>
				<circle fill="#D7DADB" cx="741.6" cy="674.6" r="4.5"/>
			</g>
			<g>
				<circle fill="#D7DADB" cx="719.2" cy="674.6" r="4.5"/>
			</g>
			<g>
				<circle fill="#D7DADB" cx="696.8" cy="674.6" r="4.5"/>
			</g>
			<g>
				<circle fill="#D7DADB" cx="674.4" cy="674.6" r="4.5"/>
			</g>
			<g>
				<circle fill="#D7DADB" cx="652" cy="674.6" r="4.5"/>
			</g>
			<g>
				<circle fill="#D7DADB" cx="629.6" cy="674.6" r="4.5"/>
			</g>
			<g>
				<circle fill="#D7DADB" cx="607.2" cy="674.6" r="4.5"/>
			</g>
			<g>
				<circle fill="#D7DADB" cx="584.8" cy="674.6" r="4.5"/>
			</g>
			<g>
				<circle fill="#D7DADB" cx="562.4" cy="674.6" r="4.5"/>
			</g>
			<g>
				<circle fill="#D7DADB" cx="540" cy="674.6" r="4.5"/>
			</g>
			<g>
				<circle fill="#D7DADB" cx="517.6" cy="674.6" r="4.5"/>
			</g>
			<g>
				<circle fill="#D7DADB" cx="495.2" cy="674.6" r="4.5"/>
			</g>
			<g>
				<circle fill="#D7DADB" cx="472.7" cy="674.6" r="4.5"/>
			</g>
		</g>
		<g>
			<g>
				<circle fill="#D7DADB" cx="808.8" cy="652.2" r="4.5"/>
			</g>
			<g>
				<circle fill="#D7DADB" cx="786.4" cy="652.2" r="4.5"/>
			</g>
			<g>
				<circle fill="#D7DADB" cx="764" cy="652.2" r="4.5"/>
			</g>
			<g>
				<circle fill="#D7DADB" cx="741.6" cy="652.2" r="4.5"/>
			</g>
			<g>
				<circle fill="#D7DADB" cx="719.2" cy="652.2" r="4.5"/>
			</g>
			<g>
				<circle fill="#D7DADB" cx="696.8" cy="652.2" r="4.5"/>
			</g>
			<g>
				<circle fill="#D7DADB" cx="674.4" cy="652.2" r="4.5"/>
			</g>
			<g>
				<circle fill="#D7DADB" cx="652" cy="652.2" r="4.5"/>
			</g>
			<g>
				<circle fill="#D7DADB" cx="629.6" cy="652.2" r="4.5"/>
			</g>
			<g>
				<circle fill="#D7DADB" cx="607.2" cy="652.2" r="4.5"/>
			</g>
			<g>
				<circle fill="#D7DADB" cx="584.8" cy="652.2" r="4.5"/>
			</g>
			<g>
				<circle fill="#D7DADB" cx="562.4" cy="652.2" r="4.5"/>
			</g>
			<g>
				<circle fill="#D7DADB" cx="540" cy="652.2" r="4.5"/>
			</g>
			<g>
				<circle fill="#D7DADB" cx="517.6" cy="652.2" r="4.5"/>
			</g>
			<g>
				<circle fill="#D7DADB" cx="495.2" cy="652.2" r="4.5"/>
			</g>
			<g>
				<circle fill="#D7DADB" cx="472.7" cy="652.2" r="4.5"/>
			</g>
		</g>
		<g>
			<g>
				<circle fill="#D7DADB" cx="831.2" cy="629.8" r="4.5"/>
			</g>
			<g>
				<circle fill="#D7DADB" cx="808.8" cy="629.8" r="4.5"/>
			</g>
			<g>
				<circle fill="#D7DADB" cx="786.4" cy="629.8" r="4.5"/>
			</g>
			<g>
				<circle fill="#D7DADB" cx="764" cy="629.8" r="4.5"/>
			</g>
			<g>
				<circle fill="#D7DADB" cx="741.6" cy="629.8" r="4.5"/>
			</g>
			<g>
				<circle fill="#D7DADB" cx="719.2" cy="629.8" r="4.5"/>
			</g>
			<g>
				<circle fill="#D7DADB" cx="696.8" cy="629.8" r="4.5"/>
			</g>
			<g>
				<circle fill="#D7DADB" cx="674.4" cy="629.8" r="4.5"/>
			</g>
			<g>
				<circle fill="#D7DADB" cx="652" cy="629.8" r="4.5"/>
			</g>
			<g>
				<circle fill="#D7DADB" cx="629.6" cy="629.8" r="4.5"/>
			</g>
			<g>
				<circle fill="#D7DADB" cx="607.2" cy="629.8" r="4.5"/>
			</g>
			<g>
				<circle fill="#D7DADB" cx="584.8" cy="629.8" r="4.5"/>
			</g>
			<g>
				<circle fill="#D7DADB" cx="562.4" cy="629.8" r="4.5"/>
			</g>
			<g>
				<circle fill="#D7DADB" cx="540" cy="629.8" r="4.5"/>
			</g>
			<g>
				<circle fill="#D7DADB" cx="517.6" cy="629.8" r="4.5"/>
			</g>
			<g>
				<circle fill="#D7DADB" cx="495.2" cy="629.8" r="4.5"/>
			</g>
			<g>
				<circle fill="#D7DADB" cx="472.7" cy="629.8" r="4.5"/>
			</g>
			<g>
				<circle fill="#D7DADB" cx="450.3" cy="629.8" r="4.5"/>
			</g>
		</g>
		<g>
			<g>
				<circle fill="#D7DADB" cx="831.2" cy="607.4" r="4.5"/>
			</g>
			<g>
				<circle fill="#D7DADB" cx="808.8" cy="607.4" r="4.5"/>
			</g>
			<g>
				<circle fill="#D7DADB" cx="786.4" cy="607.4" r="4.5"/>
			</g>
			<g>
				<circle fill="#D7DADB" cx="764" cy="607.4" r="4.5"/>
			</g>
			<g>
				<circle fill="#D7DADB" cx="741.6" cy="607.4" r="4.5"/>
			</g>
			<g>
				<circle fill="#D7DADB" cx="719.2" cy="607.4" r="4.5"/>
			</g>
			<g>
				<circle fill="#D7DADB" cx="696.8" cy="607.4" r="4.5"/>
			</g>
			<g>
				<circle fill="#D7DADB" cx="674.4" cy="607.4" r="4.5"/>
			</g>
			<g>
				<circle fill="#D7DADB" cx="652" cy="607.4" r="4.5"/>
			</g>
			<g>
				<circle fill="#D7DADB" cx="629.6" cy="607.4" r="4.5"/>
			</g>
			<g>
				<circle fill="#D7DADB" cx="607.2" cy="607.4" r="4.5"/>
			</g>
			<g>
				<circle fill="#D7DADB" cx="584.8" cy="607.4" r="4.5"/>
			</g>
			<g>
				<circle fill="#D7DADB" cx="562.4" cy="607.4" r="4.5"/>
			</g>
			<g>
				<circle fill="#D7DADB" cx="540" cy="607.4" r="4.5"/>
			</g>
			<g>
				<circle fill="#D7DADB" cx="517.6" cy="607.4" r="4.5"/>
			</g>
			<g>
				<circle fill="#D7DADB" cx="495.2" cy="607.4" r="4.5"/>
			</g>
			<g>
				<circle fill="#D7DADB" cx="472.7" cy="607.4" r="4.5"/>
			</g>
			<g>
				<circle fill="#D7DADB" cx="450.3" cy="607.4" r="4.5"/>
			</g>
		</g>
		<g>
			<g>
				<circle fill="#D7DADB" cx="831.2" cy="585" r="4.5"/>
			</g>
			<g>
				<circle fill="#D7DADB" cx="808.8" cy="585" r="4.5"/>
			</g>
			<g>
				<circle fill="#D7DADB" cx="786.4" cy="585" r="4.5"/>
			</g>
			<g>
				<circle fill="#D7DADB" cx="764" cy="585" r="4.5"/>
			</g>
			<g>
				<circle fill="#D7DADB" cx="741.6" cy="585" r="4.5"/>
			</g>
			<g>
				<circle fill="#D7DADB" cx="719.2" cy="585" r="4.5"/>
			</g>
			<g>
				<circle fill="#D7DADB" cx="696.8" cy="585" r="4.5"/>
			</g>
			<g>
				<circle fill="#D7DADB" cx="674.4" cy="585" r="4.5"/>
			</g>
			<g>
				<circle fill="#D7DADB" cx="652" cy="585" r="4.5"/>
			</g>
			<g>
				<circle fill="#D7DADB" cx="629.6" cy="585" r="4.5"/>
			</g>
			<g>
				<circle fill="#D7DADB" cx="607.2" cy="585" r="4.5"/>
			</g>
			<g>
				<circle fill="#D7DADB" cx="584.8" cy="585" r="4.5"/>
			</g>
			<g>
				<circle fill="#D7DADB" cx="562.4" cy="585" r="4.5"/>
			</g>
			<g>
				<circle fill="#D7DADB" cx="540" cy="585" r="4.5"/>
			</g>
			<g>
				<circle fill="#D7DADB" cx="517.6" cy="585" r="4.5"/>
			</g>
			<g>
				<circle fill="#D7DADB" cx="495.2" cy="585" r="4.5"/>
			</g>
			<g>
				<circle fill="#D7DADB" cx="472.7" cy="585" r="4.5"/>
			</g>
			<g>
				<circle fill="#D7DADB" cx="450.3" cy="585" r="4.5"/>
			</g>
			<g>
				<circle fill="#D7DADB" cx="427.9" cy="585" r="4.5"/>
			</g>
		</g>
		<g>
			<g>
				<circle fill="#D7DADB" cx="831.2" cy="562.6" r="4.5"/>
			</g>
			<g>
				<circle fill="#D7DADB" cx="786.4" cy="562.6" r="4.5"/>
			</g>
			<g>
				<circle fill="#D7DADB" cx="764" cy="562.6" r="4.5"/>
			</g>
			<g>
				<circle fill="#D7DADB" cx="741.6" cy="562.6" r="4.5"/>
			</g>
			<g>
				<circle fill="#D7DADB" cx="719.2" cy="562.6" r="4.5"/>
			</g>
			<g>
				<circle fill="#D7DADB" cx="696.8" cy="562.6" r="4.5"/>
			</g>
			<g>
				<circle fill="#D7DADB" cx="674.4" cy="562.6" r="4.5"/>
			</g>
			<g>
				<circle fill="#D7DADB" cx="652" cy="562.6" r="4.5"/>
			</g>
			<g>
				<circle fill="#D7DADB" cx="629.6" cy="562.6" r="4.5"/>
			</g>
			<g>
				<circle fill="#D7DADB" cx="607.2" cy="562.6" r="4.5"/>
			</g>
			<g>
				<circle fill="#D7DADB" cx="584.8" cy="562.6" r="4.5"/>
			</g>
			<g>
				<circle fill="#D7DADB" cx="562.4" cy="562.6" r="4.5"/>
			</g>
			<g>
				<circle fill="#D7DADB" cx="540" cy="562.6" r="4.5"/>
			</g>
			<g>
				<circle fill="#D7DADB" cx="517.6" cy="562.6" r="4.5"/>
			</g>
			<g>
				<circle fill="#D7DADB" cx="495.2" cy="562.6" r="4.5"/>
			</g>
			<g>
				<circle fill="#D7DADB" cx="472.7" cy="562.6" r="4.5"/>
			</g>
			<g>
				<circle fill="#D7DADB" cx="450.3" cy="562.6" r="4.5"/>
			</g>
			<g>
				<circle fill="#D7DADB" cx="427.9" cy="562.6" r="4.5"/>
			</g>
		</g>
		<g>
			<g>
				<circle fill="#D7DADB" cx="831.2" cy="540.2" r="4.5"/>
			</g>
			<g>
				<circle fill="#D7DADB" cx="786.4" cy="540.2" r="4.5"/>
			</g>
			<g>
				<circle fill="#D7DADB" cx="764" cy="540.2" r="4.5"/>
			</g>
			<g>
				<circle fill="#D7DADB" cx="741.6" cy="540.2" r="4.5"/>
			</g>
			<g>
				<circle fill="#D7DADB" cx="719.2" cy="540.2" r="4.5"/>
			</g>
			<g>
				<circle fill="#D7DADB" cx="696.8" cy="540.2" r="4.5"/>
			</g>
			<g>
				<circle fill="#D7DADB" cx="674.4" cy="540.2" r="4.5"/>
			</g>
			<g>
				<circle fill="#D7DADB" cx="652" cy="540.2" r="4.5"/>
			</g>
			<g>
				<circle fill="#D7DADB" cx="629.6" cy="540.2" r="4.5"/>
			</g>
			<g>
				<circle fill="#D7DADB" cx="607.2" cy="540.2" r="4.5"/>
			</g>
			<g>
				<circle fill="#D7DADB" cx="584.8" cy="540.2" r="4.5"/>
			</g>
			<g>
				<circle fill="#D7DADB" cx="562.4" cy="540.2" r="4.5"/>
			</g>
			<g>
				<circle fill="#D7DADB" cx="540" cy="540.2" r="4.5"/>
			</g>
			<g>
				<circle fill="#D7DADB" cx="517.6" cy="540.2" r="4.5"/>
			</g>
			<g>
				<circle fill="#D7DADB" cx="495.2" cy="540.2" r="4.5"/>
			</g>
			<g>
				<circle fill="#D7DADB" cx="472.7" cy="540.2" r="4.5"/>
			</g>
			<g>
				<circle fill="#D7DADB" cx="450.3" cy="540.2" r="4.5"/>
			</g>
			<g>
				<circle fill="#D7DADB" cx="427.9" cy="540.2" r="4.5"/>
			</g>
		</g>
		<g>
			<g>
				<circle fill="#D7DADB" cx="786.4" cy="517.8" r="4.5"/>
			</g>
			<g>
				<circle fill="#D7DADB" cx="764" cy="517.8" r="4.5"/>
			</g>
			<g>
				<circle fill="#D7DADB" cx="741.6" cy="517.8" r="4.5"/>
			</g>
			<g>
				<circle fill="#D7DADB" cx="719.2" cy="517.8" r="4.5"/>
			</g>
			<g>
				<circle fill="#D7DADB" cx="696.8" cy="517.8" r="4.5"/>
			</g>
			<g>
				<circle fill="#D7DADB" cx="674.4" cy="517.8" r="4.5"/>
			</g>
			<g>
				<circle fill="#D7DADB" cx="652" cy="517.8" r="4.5"/>
			</g>
			<g>
				<circle fill="#D7DADB" cx="629.6" cy="517.8" r="4.5"/>
			</g>
			<g>
				<circle fill="#D7DADB" cx="607.2" cy="517.8" r="4.5"/>
			</g>
			<g>
				<circle fill="#D7DADB" cx="584.8" cy="517.8" r="4.5"/>
			</g>
			<g>
				<circle fill="#D7DADB" cx="562.4" cy="517.8" r="4.5"/>
			</g>
			<g>
				<circle fill="#D7DADB" cx="540" cy="517.8" r="4.5"/>
			</g>
			<g>
				<circle fill="#D7DADB" cx="517.6" cy="517.8" r="4.5"/>
			</g>
			<g>
				<circle fill="#D7DADB" cx="495.2" cy="517.8" r="4.5"/>
			</g>
			<g>
				<circle fill="#D7DADB" cx="472.7" cy="517.8" r="4.5"/>
			</g>
			<g>
				<circle fill="#D7DADB" cx="450.3" cy="517.8" r="4.5"/>
			</g>
			<g>
				<circle fill="#D7DADB" cx="427.9" cy="517.8" r="4.5"/>
			</g>
		</g>
		<g>
			<g>
				<circle fill="#D7DADB" cx="786.4" cy="495.4" r="4.5"/>
			</g>
			<g>
				<circle fill="#D7DADB" cx="764" cy="495.4" r="4.5"/>
			</g>
			<g>
				<circle fill="#D7DADB" cx="741.6" cy="495.4" r="4.5"/>
			</g>
			<g>
				<circle fill="#D7DADB" cx="719.2" cy="495.4" r="4.5"/>
			</g>
			<g>
				<circle fill="#D7DADB" cx="674.4" cy="495.4" r="4.5"/>
			</g>
			<g>
				<circle fill="#D7DADB" cx="652" cy="495.4" r="4.5"/>
			</g>
			<g>
				<circle fill="#D7DADB" cx="629.6" cy="495.4" r="4.5"/>
			</g>
			<g>
				<circle fill="#D7DADB" cx="607.2" cy="495.4" r="4.5"/>
			</g>
			<g>
				<circle fill="#D7DADB" cx="584.8" cy="495.4" r="4.5"/>
			</g>
			<g>
				<circle fill="#D7DADB" cx="562.4" cy="495.4" r="4.5"/>
			</g>
			<g>
				<circle fill="#D7DADB" cx="540" cy="495.4" r="4.5"/>
			</g>
			<g>
				<circle fill="#D7DADB" cx="517.6" cy="495.4" r="4.5"/>
			</g>
			<g>
				<circle fill="#D7DADB" cx="495.2" cy="495.4" r="4.5"/>
			</g>
			<g>
				<circle fill="#D7DADB" cx="472.7" cy="495.4" r="4.5"/>
			</g>
			<g>
				<circle fill="#D7DADB" cx="450.3" cy="495.4" r="4.5"/>
			</g>
			<g>
				<circle fill="#D7DADB" cx="427.9" cy="495.4" r="4.5"/>
			</g>
		</g>
		<g>
			<g>
				<circle fill="#D7DADB" cx="764" cy="473" r="4.5"/>
			</g>
			<g>
				<circle fill="#D7DADB" cx="741.6" cy="473" r="4.5"/>
			</g>
			<g>
				<circle fill="#D7DADB" cx="674.4" cy="473" r="4.5"/>
			</g>
			<g>
				<circle fill="#D7DADB" cx="652" cy="473" r="4.5"/>
			</g>
			<g>
				<circle fill="#D7DADB" cx="629.6" cy="473" r="4.5"/>
			</g>
			<g>
				<circle fill="#D7DADB" cx="607.2" cy="473" r="4.5"/>
			</g>
			<g>
				<circle fill="#D7DADB" cx="584.8" cy="473" r="4.5"/>
			</g>
			<g>
				<circle fill="#D7DADB" cx="562.4" cy="473" r="4.5"/>
			</g>
			<g>
				<circle fill="#D7DADB" cx="540" cy="473" r="4.5"/>
			</g>
			<g>
				<circle fill="#D7DADB" cx="517.6" cy="473" r="4.5"/>
			</g>
			<g>
				<circle fill="#D7DADB" cx="495.2" cy="473" r="4.5"/>
			</g>
			<g>
				<circle fill="#D7DADB" cx="472.7" cy="473" r="4.5"/>
			</g>
			<g>
				<circle fill="#D7DADB" cx="450.3" cy="473" r="4.5"/>
			</g>
			<g>
				<circle fill="#D7DADB" cx="427.9" cy="473" r="4.5"/>
			</g>
		</g>
		<g>
			<g>
				<circle fill="#D7DADB" cx="786.4" cy="450.6" r="4.5"/>
			</g>
			<g>
				<circle fill="#D7DADB" cx="764" cy="450.6" r="4.5"/>
			</g>
			<g>
				<circle fill="#D7DADB" cx="696.8" cy="450.6" r="4.5"/>
			</g>
			<g>
				<circle fill="#D7DADB" cx="674.4" cy="450.6" r="4.5"/>
			</g>
			<g>
				<circle fill="#D7DADB" cx="652" cy="450.6" r="4.5"/>
			</g>
			<g>
				<circle fill="#D7DADB" cx="629.6" cy="450.6" r="4.5"/>
			</g>
			<g>
				<circle fill="#D7DADB" cx="607.2" cy="450.6" r="4.5"/>
			</g>
			<g>
				<circle fill="#D7DADB" cx="584.8" cy="450.6" r="4.5"/>
			</g>
			<g>
				<circle fill="#D7DADB" cx="562.4" cy="450.6" r="4.5"/>
			</g>
			<g>
				<circle fill="#D7DADB" cx="540" cy="450.6" r="4.5"/>
			</g>
			<g>
				<circle fill="#D7DADB" cx="517.6" cy="450.6" r="4.5"/>
			</g>
			<g>
				<circle fill="#D7DADB" cx="495.2" cy="450.6" r="4.5"/>
			</g>
			<g>
				<circle fill="#D7DADB" cx="472.7" cy="450.6" r="4.5"/>
			</g>
			<g>
				<circle fill="#D7DADB" cx="450.3" cy="450.6" r="4.5"/>
			</g>
			<g>
				<circle fill="#D7DADB" cx="427.9" cy="450.6" r="4.5"/>
			</g>
		</g>
		<g>
			<g>
				<circle fill="#D7DADB" cx="696.8" cy="428.2" r="4.5"/>
			</g>
			<g>
				<circle fill="#D7DADB" cx="674.4" cy="428.2" r="4.5"/>
			</g>
			<g>
				<circle fill="#D7DADB" cx="652" cy="428.2" r="4.5"/>
			</g>
			<g>
				<circle fill="#D7DADB" cx="629.6" cy="428.2" r="4.5"/>
			</g>
			<g>
				<circle fill="#D7DADB" cx="607.2" cy="428.2" r="4.5"/>
			</g>
			<g>
				<circle fill="#D7DADB" cx="584.8" cy="428.2" r="4.5"/>
			</g>
			<g>
				<circle fill="#D7DADB" cx="562.4" cy="428.2" r="4.5"/>
			</g>
			<g>
				<circle fill="#D7DADB" cx="540" cy="428.2" r="4.5"/>
			</g>
			<g>
				<circle fill="#D7DADB" cx="517.6" cy="428.2" r="4.5"/>
			</g>
			<g>
				<circle fill="#D7DADB" cx="495.2" cy="428.2" r="4.5"/>
			</g>
			<g>
				<circle fill="#D7DADB" cx="472.7" cy="428.2" r="4.5"/>
			</g>
			<g>
				<circle fill="#D7DADB" cx="450.3" cy="428.2" r="4.5"/>
			</g>
			<g>
				<circle fill="#D7DADB" cx="427.9" cy="428.2" r="4.5"/>
			</g>
		</g>
		<g>
			<g>
				<circle fill="#D7DADB" cx="696.8" cy="405.8" r="4.5"/>
			</g>
			<g>
				<circle fill="#D7DADB" cx="674.4" cy="405.8" r="4.5"/>
			</g>
			<g>
				<circle fill="#D7DADB" cx="652" cy="405.8" r="4.5"/>
			</g>
			<g>
				<circle fill="#D7DADB" cx="629.6" cy="405.8" r="4.5"/>
			</g>
			<g>
				<circle fill="#D7DADB" cx="607.2" cy="405.8" r="4.5"/>
			</g>
			<g>
				<circle fill="#D7DADB" cx="584.8" cy="405.8" r="4.5"/>
			</g>
			<g>
				<circle fill="#D7DADB" cx="562.4" cy="405.8" r="4.5"/>
			</g>
			<g>
				<circle fill="#D7DADB" cx="540" cy="405.8" r="4.5"/>
			</g>
			<g>
				<circle fill="#D7DADB" cx="517.6" cy="405.8" r="4.5"/>
			</g>
			<g>
				<circle fill="#D7DADB" cx="495.2" cy="405.8" r="4.5"/>
			</g>
			<g>
				<circle fill="#D7DADB" cx="472.7" cy="405.8" r="4.5"/>
			</g>
			<g>
				<circle fill="#D7DADB" cx="450.3" cy="405.8" r="4.5"/>
			</g>
		</g>
		<g>
			<g>
				<circle fill="#D7DADB" cx="652" cy="383.4" r="4.5"/>
			</g>
			<g>
				<circle fill="#D7DADB" cx="629.6" cy="383.4" r="4.5"/>
			</g>
			<g>
				<circle fill="#D7DADB" cx="607.2" cy="383.4" r="4.5"/>
			</g>
			<g>
				<circle fill="#D7DADB" cx="584.8" cy="383.4" r="4.5"/>
			</g>
			<g>
				<circle fill="#D7DADB" cx="562.4" cy="383.4" r="4.5"/>
			</g>
			<g>
				<circle fill="#D7DADB" cx="540" cy="383.4" r="4.5"/>
			</g>
			<g>
				<circle fill="#D7DADB" cx="517.6" cy="383.4" r="4.5"/>
			</g>
			<g>
				<circle fill="#D7DADB" cx="472.7" cy="383.4" r="4.5"/>
			</g>
			<g>
				<circle fill="#D7DADB" cx="450.3" cy="383.4" r="4.5"/>
			</g>
		</g>
	</g>
	<g>
		<g>
			<g>
				<circle fill="#D7DADB" cx="138.3" cy="4.5" r="4.5"/>
			</g>
		</g>
		<g>
			<g>
				<circle fill="#D7DADB" cx="116" cy="26.8" r="4.5"/>
			</g>
		</g>
		<g>
			<g>
				<circle fill="#D7DADB" cx="93.7" cy="49.1" r="4.5"/>
			</g>
		</g>
		<g>
			<g>
				<circle fill="#D7DADB" cx="227.5" cy="71.4" r="4.5"/>
			</g>
			<g>
				<circle fill="#D7DADB" cx="205.2" cy="71.4" r="4.5"/>
			</g>
			<g>
				<circle fill="#D7DADB" cx="182.9" cy="71.4" r="4.5"/>
			</g>
		</g>
		<g>
			<g>
				<circle fill="#D7DADB" cx="182.9" cy="93.7" r="4.5"/>
			</g>
			<g>
				<circle fill="#D7DADB" cx="160.6" cy="93.7" r="4.5"/>
			</g>
		</g>
		<g>
			<g>
				<circle fill="#D7DADB" cx="495.2" cy="116" r="4.5"/>
			</g>
			<g>
				<circle fill="#D7DADB" cx="472.9" cy="116" r="4.5"/>
			</g>
			<g>
				<circle fill="#D7DADB" cx="182.9" cy="116" r="4.5"/>
			</g>
			<g>
				<circle fill="#D7DADB" cx="160.6" cy="116" r="4.5"/>
			</g>
			<g>
				<circle fill="#D7DADB" cx="138.3" cy="116" r="4.5"/>
			</g>
		</g>
		<g>
			<g>
				<circle fill="#D7DADB" cx="562.1" cy="138.3" r="4.5"/>
			</g>
			<g>
				<circle fill="#D7DADB" cx="495.2" cy="138.3" r="4.5"/>
			</g>
			<g>
				<circle fill="#D7DADB" cx="472.9" cy="138.3" r="4.5"/>
			</g>
			<g>
				<circle fill="#D7DADB" cx="450.6" cy="138.3" r="4.5"/>
			</g>
			<g>
				<circle fill="#D7DADB" cx="428.3" cy="138.3" r="4.5"/>
			</g>
			<g>
				<circle fill="#D7DADB" cx="406" cy="138.3" r="4.5"/>
			</g>
			<g>
				<circle fill="#D7DADB" cx="227.5" cy="138.3" r="4.5"/>
			</g>
			<g>
				<circle fill="#D7DADB" cx="205.2" cy="138.3" r="4.5"/>
			</g>
			<g>
				<circle fill="#D7DADB" cx="160.6" cy="138.3" r="4.5"/>
			</g>
			<g>
				<circle fill="#D7DADB" cx="138.3" cy="138.3" r="4.5"/>
			</g>
			<g>
				<circle fill="#D7DADB" cx="116" cy="138.3" r="4.5"/>
			</g>
		</g>
		<g>
			<g>
				<circle fill="#D7DADB" cx="562.1" cy="160.6" r="4.5"/>
			</g>
			<g>
				<circle fill="#D7DADB" cx="539.8" cy="160.6" r="4.5"/>
			</g>
			<g>
				<circle fill="#D7DADB" cx="517.5" cy="160.6" r="4.5"/>
			</g>
			<g>
				<circle fill="#D7DADB" cx="495.2" cy="160.6" r="4.5"/>
			</g>
			<g>
				<circle fill="#D7DADB" cx="472.9" cy="160.6" r="4.5"/>
			</g>
			<g>
				<circle fill="#D7DADB" cx="450.6" cy="160.6" r="4.5"/>
			</g>
			<g>
				<circle fill="#D7DADB" cx="428.3" cy="160.6" r="4.5"/>
			</g>
			<g>
				<circle fill="#D7DADB" cx="406" cy="160.6" r="4.5"/>
			</g>
			<g>
				<circle fill="#D7DADB" cx="383.6" cy="160.6" r="4.5"/>
			</g>
			<g>
				<circle fill="#D7DADB" cx="249.8" cy="160.6" r="4.5"/>
			</g>
			<g>
				<circle fill="#D7DADB" cx="227.5" cy="160.6" r="4.5"/>
			</g>
			<g>
				<circle fill="#D7DADB" cx="205.2" cy="160.6" r="4.5"/>
			</g>
			<g>
				<circle fill="#D7DADB" cx="182.9" cy="160.6" r="4.5"/>
			</g>
			<g>
				<circle fill="#D7DADB" cx="160.6" cy="160.6" r="4.5"/>
			</g>
			<g>
				<circle fill="#D7DADB" cx="138.3" cy="160.6" r="4.5"/>
			</g>
			<g>
				<circle fill="#D7DADB" cx="116" cy="160.6" r="4.5"/>
			</g>
			<g>
				<circle fill="#D7DADB" cx="93.7" cy="160.6" r="4.5"/>
			</g>
		</g>
		<g>
			<g>
				<circle fill="#D7DADB" cx="584.4" cy="182.9" r="4.5"/>
			</g>
			<g>
				<circle fill="#D7DADB" cx="562.1" cy="182.9" r="4.5"/>
			</g>
			<g>
				<circle fill="#D7DADB" cx="539.8" cy="182.9" r="4.5"/>
			</g>
			<g>
				<circle fill="#D7DADB" cx="517.5" cy="182.9" r="4.5"/>
			</g>
			<g>
				<circle fill="#D7DADB" cx="495.2" cy="182.9" r="4.5"/>
			</g>
			<g>
				<circle fill="#D7DADB" cx="472.9" cy="182.9" r="4.5"/>
			</g>
			<g>
				<circle fill="#D7DADB" cx="450.6" cy="182.9" r="4.5"/>
			</g>
			<g>
				<circle fill="#D7DADB" cx="428.3" cy="182.9" r="4.5"/>
			</g>
			<g>
				<circle fill="#D7DADB" cx="406" cy="182.9" r="4.5"/>
			</g>
			<g>
				<circle fill="#D7DADB" cx="383.6" cy="182.9" r="4.5"/>
			</g>
			<g>
				<circle fill="#D7DADB" cx="361.3" cy="182.9" r="4.5"/>
			</g>
			<g>
				<circle fill="#D7DADB" cx="339" cy="182.9" r="4.5"/>
			</g>
			<g>
				<circle fill="#D7DADB" cx="316.7" cy="182.9" r="4.5"/>
			</g>
			<g>
				<circle fill="#D7DADB" cx="294.4" cy="182.9" r="4.5"/>
			</g>
			<g>
				<circle fill="#D7DADB" cx="272.1" cy="182.9" r="4.5"/>
			</g>
			<g>
				<circle fill="#D7DADB" cx="249.8" cy="182.9" r="4.5"/>
			</g>
			<g>
				<circle fill="#D7DADB" cx="227.5" cy="182.9" r="4.5"/>
			</g>
			<g>
				<circle fill="#D7DADB" cx="205.2" cy="182.9" r="4.5"/>
			</g>
			<g>
				<circle fill="#D7DADB" cx="182.9" cy="182.9" r="4.5"/>
			</g>
			<g>
				<circle fill="#D7DADB" cx="160.6" cy="182.9" r="4.5"/>
			</g>
			<g>
				<circle fill="#D7DADB" cx="138.3" cy="182.9" r="4.5"/>
			</g>
			<g>
				<circle fill="#D7DADB" cx="116" cy="182.9" r="4.5"/>
			</g>
			<g>
				<circle fill="#D7DADB" cx="93.7" cy="182.9" r="4.5"/>
			</g>
			<g>
				<circle fill="#D7DADB" cx="71.4" cy="182.9" r="4.5"/>
			</g>
			<g>
				<circle fill="#D7DADB" cx="49.1" cy="182.9" r="4.5"/>
			</g>
		</g>
		<g>
			<g>
				<circle fill="#D7DADB" cx="606.7" cy="205.2" r="4.5"/>
			</g>
			<g>
				<circle fill="#D7DADB" cx="584.4" cy="205.2" r="4.5"/>
			</g>
			<g>
				<circle fill="#D7DADB" cx="562.1" cy="205.2" r="4.5"/>
			</g>
			<g>
				<circle fill="#D7DADB" cx="539.8" cy="205.2" r="4.5"/>
			</g>
			<g>
				<circle fill="#D7DADB" cx="517.5" cy="205.2" r="4.5"/>
			</g>
			<g>
				<circle fill="#D7DADB" cx="495.2" cy="205.2" r="4.5"/>
			</g>
			<g>
				<circle fill="#D7DADB" cx="472.9" cy="205.2" r="4.5"/>
			</g>
			<g>
				<circle fill="#D7DADB" cx="450.6" cy="205.2" r="4.5"/>
			</g>
			<g>
				<circle fill="#D7DADB" cx="428.3" cy="205.2" r="4.5"/>
			</g>
			<g>
				<circle fill="#D7DADB" cx="406" cy="205.2" r="4.5"/>
			</g>
			<g>
				<circle fill="#D7DADB" cx="383.6" cy="205.2" r="4.5"/>
			</g>
			<g>
				<circle fill="#D7DADB" cx="361.3" cy="205.2" r="4.5"/>
			</g>
			<g>
				<circle fill="#D7DADB" cx="339" cy="205.2" r="4.5"/>
			</g>
			<g>
				<circle fill="#D7DADB" cx="316.7" cy="205.2" r="4.5"/>
			</g>
			<g>
				<circle fill="#D7DADB" cx="294.4" cy="205.2" r="4.5"/>
			</g>
			<g>
				<circle fill="#D7DADB" cx="272.1" cy="205.2" r="4.5"/>
			</g>
			<g>
				<circle fill="#D7DADB" cx="249.8" cy="205.2" r="4.5"/>
			</g>
			<g>
				<circle fill="#D7DADB" cx="227.5" cy="205.2" r="4.5"/>
			</g>
			<g>
				<circle fill="#D7DADB" cx="205.2" cy="205.2" r="4.5"/>
			</g>
			<g>
				<circle fill="#D7DADB" cx="182.9" cy="205.2" r="4.5"/>
			</g>
			<g>
				<circle fill="#D7DADB" cx="160.6" cy="205.2" r="4.5"/>
			</g>
			<g>
				<circle fill="#D7DADB" cx="138.3" cy="205.2" r="4.5"/>
			</g>
			<g>
				<circle fill="#D7DADB" cx="116" cy="205.2" r="4.5"/>
			</g>
			<g>
				<circle fill="#D7DADB" cx="93.7" cy="205.2" r="4.5"/>
			</g>
			<g>
				<circle fill="#D7DADB" cx="71.4" cy="205.2" r="4.5"/>
			</g>
			<g>
				<circle fill="#D7DADB" cx="49.1" cy="205.2" r="4.5"/>
			</g>
			<g>
				<circle fill="#D7DADB" cx="26.8" cy="205.2" r="4.5"/>
			</g>
		</g>
		<g>
			<g>
				<circle fill="#D7DADB" cx="539.8" cy="227.5" r="4.5"/>
			</g>
			<g>
				<circle fill="#D7DADB" cx="517.5" cy="227.5" r="4.5"/>
			</g>
			<g>
				<circle fill="#D7DADB" cx="450.6" cy="227.5" r="4.5"/>
			</g>
			<g>
				<circle fill="#D7DADB" cx="428.3" cy="227.5" r="4.5"/>
			</g>
			<g>
				<circle fill="#D7DADB" cx="406" cy="227.5" r="4.5"/>
			</g>
			<g>
				<circle fill="#D7DADB" cx="383.6" cy="227.5" r="4.5"/>
			</g>
			<g>
				<circle fill="#D7DADB" cx="361.3" cy="227.5" r="4.5"/>
			</g>
			<g>
				<circle fill="#D7DADB" cx="339" cy="227.5" r="4.5"/>
			</g>
			<g>
				<circle fill="#D7DADB" cx="316.7" cy="227.5" r="4.5"/>
			</g>
			<g>
				<circle fill="#D7DADB" cx="294.4" cy="227.5" r="4.5"/>
			</g>
			<g>
				<circle fill="#D7DADB" cx="272.1" cy="227.5" r="4.5"/>
			</g>
			<g>
				<circle fill="#D7DADB" cx="249.8" cy="227.5" r="4.5"/>
			</g>
			<g>
				<circle fill="#D7DADB" cx="227.5" cy="227.5" r="4.5"/>
			</g>
			<g>
				<circle fill="#D7DADB" cx="205.2" cy="227.5" r="4.5"/>
			</g>
			<g>
				<circle fill="#D7DADB" cx="182.9" cy="227.5" r="4.5"/>
			</g>
			<g>
				<circle fill="#D7DADB" cx="160.6" cy="227.5" r="4.5"/>
			</g>
			<g>
				<circle fill="#D7DADB" cx="138.3" cy="227.5" r="4.5"/>
			</g>
			<g>
				<circle fill="#D7DADB" cx="116" cy="227.5" r="4.5"/>
			</g>
			<g>
				<circle fill="#D7DADB" cx="93.7" cy="227.5" r="4.5"/>
			</g>
			<g>
				<circle fill="#D7DADB" cx="71.4" cy="227.5" r="4.5"/>
			</g>
			<g>
				<circle fill="#D7DADB" cx="49.1" cy="227.5" r="4.5"/>
			</g>
			<g>
				<circle fill="#D7DADB" cx="26.8" cy="227.5" r="4.5"/>
			</g>
			<g>
				<circle fill="#D7DADB" cx="4.5" cy="227.5" r="4.5"/>
			</g>
		</g>
		<g>
			<g>
				<circle fill="#D7DADB" cx="562.1" cy="249.8" r="4.5"/>
			</g>
			<g>
				<circle fill="#D7DADB" cx="539.8" cy="249.8" r="4.5"/>
			</g>
			<g>
				<circle fill="#D7DADB" cx="517.5" cy="249.8" r="4.5"/>
			</g>
			<g>
				<circle fill="#D7DADB" cx="428.3" cy="249.8" r="4.5"/>
			</g>
			<g>
				<circle fill="#D7DADB" cx="406" cy="249.8" r="4.5"/>
			</g>
			<g>
				<circle fill="#D7DADB" cx="383.6" cy="249.8" r="4.5"/>
			</g>
			<g>
				<circle fill="#D7DADB" cx="361.3" cy="249.8" r="4.5"/>
			</g>
			<g>
				<circle fill="#D7DADB" cx="339" cy="249.8" r="4.5"/>
			</g>
			<g>
				<circle fill="#D7DADB" cx="316.7" cy="249.8" r="4.5"/>
			</g>
			<g>
				<circle fill="#D7DADB" cx="294.4" cy="249.8" r="4.5"/>
			</g>
			<g>
				<circle fill="#D7DADB" cx="272.1" cy="249.8" r="4.5"/>
			</g>
			<g>
				<circle fill="#D7DADB" cx="249.8" cy="249.8" r="4.5"/>
			</g>
			<g>
				<circle fill="#D7DADB" cx="227.5" cy="249.8" r="4.5"/>
			</g>
			<g>
				<circle fill="#D7DADB" cx="205.2" cy="249.8" r="4.5"/>
			</g>
			<g>
				<circle fill="#D7DADB" cx="182.9" cy="249.8" r="4.5"/>
			</g>
			<g>
				<circle fill="#D7DADB" cx="160.6" cy="249.8" r="4.5"/>
			</g>
			<g>
				<circle fill="#D7DADB" cx="138.3" cy="249.8" r="4.5"/>
			</g>
			<g>
				<circle fill="#D7DADB" cx="116" cy="249.8" r="4.5"/>
			</g>
			<g>
				<circle fill="#D7DADB" cx="93.7" cy="249.8" r="4.5"/>
			</g>
			<g>
				<circle fill="#D7DADB" cx="71.4" cy="249.8" r="4.5"/>
			</g>
			<g>
				<circle fill="#D7DADB" cx="49.1" cy="249.8" r="4.5"/>
			</g>
			<g>
				<circle fill="#D7DADB" cx="26.8" cy="249.8" r="4.5"/>
			</g>
		</g>
		<g>
			<g>
				<circle fill="#D7DADB" cx="584.4" cy="272.1" r="4.5"/>
			</g>
			<g>
				<circle fill="#D7DADB" cx="562.1" cy="272.1" r="4.5"/>
			</g>
			<g>
				<circle fill="#D7DADB" cx="539.8" cy="272.1" r="4.5"/>
			</g>
			<g>
				<circle fill="#D7DADB" cx="517.5" cy="272.1" r="4.5"/>
			</g>
			<g>
				<circle fill="#D7DADB" cx="383.6" cy="272.1" r="4.5"/>
			</g>
			<g>
				<circle fill="#D7DADB" cx="339" cy="272.1" r="4.5"/>
			</g>
			<g>
				<circle fill="#D7DADB" cx="316.7" cy="272.1" r="4.5"/>
			</g>
			<g>
				<circle fill="#D7DADB" cx="294.4" cy="272.1" r="4.5"/>
			</g>
			<g>
				<circle fill="#D7DADB" cx="272.1" cy="272.1" r="4.5"/>
			</g>
			<g>
				<circle fill="#D7DADB" cx="249.8" cy="272.1" r="4.5"/>
			</g>
			<g>
				<circle fill="#D7DADB" cx="227.5" cy="272.1" r="4.5"/>
			</g>
			<g>
				<circle fill="#D7DADB" cx="205.2" cy="272.1" r="4.5"/>
			</g>
			<g>
				<circle fill="#D7DADB" cx="182.9" cy="272.1" r="4.5"/>
			</g>
			<g>
				<circle fill="#D7DADB" cx="160.6" cy="272.1" r="4.5"/>
			</g>
			<g>
				<circle fill="#D7DADB" cx="138.3" cy="272.1" r="4.5"/>
			</g>
		</g>
		<g>
			<g>
				<circle fill="#D7DADB" cx="517.5" cy="294.4" r="4.5"/>
			</g>
			<g>
				<circle fill="#D7DADB" cx="361.3" cy="294.4" r="4.5"/>
			</g>
			<g>
				<circle fill="#D7DADB" cx="339" cy="294.4" r="4.5"/>
			</g>
			<g>
				<circle fill="#D7DADB" cx="316.7" cy="294.4" r="4.5"/>
			</g>
			<g>
				<circle fill="#D7DADB" cx="294.4" cy="294.4" r="4.5"/>
			</g>
			<g>
				<circle fill="#D7DADB" cx="272.1" cy="294.4" r="4.5"/>
			</g>
			<g>
				<circle fill="#D7DADB" cx="249.8" cy="294.4" r="4.5"/>
			</g>
			<g>
				<circle fill="#D7DADB" cx="227.5" cy="294.4" r="4.5"/>
			</g>
		</g>
		<g>
			<g>
				<circle fill="#D7DADB" cx="294.4" cy="316.7" r="4.5"/>
			</g>
			<g>
				<circle fill="#D7DADB" cx="272.1" cy="316.7" r="4.5"/>
			</g>
			<g>
				<circle fill="#D7DADB" cx="249.8" cy="316.7" r="4.5"/>
			</g>
		</g>
	</g>
	<path fill="#D7DADB" d="M696.8,392.2c-2.5,0-4.5-2-4.5-4.5c0-2.5,2-4.5,4.5-4.5c2.5,0,4.5,2,4.5,4.5
		C701.3,390.2,699.3,392.2,696.8,392.2"/>
	<path fill="#D7DADB" d="M674.4,392.2c-2.5,0-4.5-2-4.5-4.5c0-2.5,2-4.5,4.5-4.5c2.5,0,4.5,2,4.5,4.5
		C678.9,390.2,676.9,392.2,674.4,392.2"/>
	<g>
		<circle fill="#D7DADB" cx="696.8" cy="365.3" r="4.5"/>
	</g>
	<g>
		<circle fill="#D7DADB" cx="674.4" cy="365.3" r="4.5"/>
	</g>
	<g>
		<circle fill="#D7DADB" cx="696.8" cy="342.9" r="4.5"/>
	</g>
	<g>
		<circle fill="#D7DADB" cx="674.4" cy="342.9" r="4.5"/>
	</g>
	<g>
		<circle fill="#D7DADB" cx="696.8" cy="320.5" r="4.5"/>
	</g>
	<g>
		<circle fill="#D7DADB" cx="674.4" cy="320.5" r="4.5"/>
	</g>
	<g>
		<circle fill="#D7DADB" cx="674.4" cy="298.1" r="4.5"/>
	</g>
	<path fill="#D7DADB" d="M650.5,369.8c-2.5,0-4.5-2-4.5-4.5c0-2.5,2-4.5,4.5-4.5c2.5,0,4.5,2,4.5,4.5
		C655,367.8,653,369.8,650.5,369.8"/>
	<path fill="#D7DADB" d="M628.1,369.8c-2.5,0-4.5-2-4.5-4.5c0-2.5,2-4.5,4.5-4.5c2.5,0,4.5,2,4.5,4.5
		C632.6,367.8,630.6,369.8,628.1,369.8"/>
	<path fill="#D7DADB" d="M605.7,369.8c-2.5,0-4.5-2-4.5-4.5c0-2.5,2-4.5,4.5-4.5c2.5,0,4.5,2,4.5,4.5
		C610.2,367.8,608.1,369.8,605.7,369.8"/>
	<path fill="#D7DADB" d="M583.3,369.8c-2.5,0-4.5-2-4.5-4.5c0-2.5,2-4.5,4.5-4.5c2.5,0,4.5,2,4.5,4.5
		C587.8,367.8,585.7,369.8,583.3,369.8"/>
	<g>
		<circle fill="#D7DADB" cx="650.5" cy="342.9" r="4.5"/>
	</g>
	<g>
		<circle fill="#D7DADB" cx="628.1" cy="342.9" r="4.5"/>
	</g>
	<g>
		<circle fill="#D7DADB" cx="605.7" cy="342.9" r="4.5"/>
	</g>
	<g>
		<circle fill="#D7DADB" cx="583.3" cy="342.9" r="4.5"/>
	</g>
	<g>
		<circle fill="#D7DADB" cx="650.5" cy="320.5" r="4.5"/>
	</g>
	<g>
		<circle fill="#D7DADB" cx="628.1" cy="320.5" r="4.5"/>
	</g>
	<g>
		<circle fill="#D7DADB" cx="605.7" cy="320.5" r="4.5"/>
	</g>
	<g>
		<circle fill="#D7DADB" cx="583.3" cy="320.5" r="4.5"/>
	</g>
	<g>
		<circle fill="#D7DADB" cx="650.5" cy="298.1" r="4.5"/>
	</g>
	<g>
		<circle fill="#D7DADB" cx="628.1" cy="298.1" r="4.5"/>
	</g>
	<g>
		<circle fill="#D7DADB" cx="605.7" cy="298.1" r="4.5"/>
	</g>
	<g>
		<circle fill="#D7DADB" cx="583.3" cy="298.1" r="4.5"/>
	</g>
	<g>
		<circle fill="#D7DADB" cx="650.5" cy="275.7" r="4.5"/>
	</g>
	<g>
		<circle fill="#D7DADB" cx="628.1" cy="275.7" r="4.5"/>
	</g>
	<g>
		<circle fill="#D7DADB" cx="605.7" cy="275.7" r="4.5"/>
	</g>
	<g>
		<circle fill="#D7DADB" cx="583.3" cy="251.4" r="4.5"/>
	</g>
	<g>
		<path fill="#D7DADB" d="M292.7,379.9"/>
		<path fill="#D7DADB" d="M297.1,384.4"/>
	</g>
	<g>
		<circle fill="#D7DADB" cx="274.7" cy="379.9" r="4.5"/>
	</g>
	<g>
		<circle fill="#D7DADB" cx="297.1" cy="357.5" r="4.5"/>
	</g>
	<g>
		<circle fill="#D7DADB" cx="274.7" cy="357.5" r="4.5"/>
	</g>
	<g>
		<circle fill="#D7DADB" cx="252.3" cy="357.5" r="4.5"/>
	</g>
	<g>
		<circle fill="#D7DADB" cx="297.1" cy="335.1" r="4.5"/>
	</g>
	<g>
		<circle fill="#D7DADB" cx="274.7" cy="335.1" r="4.5"/>
	</g>
	<g>
		<circle fill="#D7DADB" cx="252.3" cy="335.1" r="4.5"/>
	</g>
	<path fill="#D7DADB" d="M295.6,321.5c-2.5,0-4.5-2-4.5-4.5c0-2.5,2-4.5,4.5-4.5c2.5,0,4.5,2,4.5,4.5
		C300.1,319.5,298.1,321.5,295.6,321.5"/>
	<path fill="#D7DADB" d="M273.2,321.5c-2.5,0-4.5-2-4.5-4.5c0-2.5,2-4.5,4.5-4.5c2.5,0,4.5,2,4.5,4.5
		C277.7,319.5,275.7,321.5,273.2,321.5"/>
	<path fill="#D7DADB" d="M562.4,387.7c-2.5,0-4.5-2-4.5-4.5c0-2.5,2-4.5,4.5-4.5c2.5,0,4.5,2,4.5,4.5
		C566.8,385.7,564.8,387.7,562.4,387.7"/>
	<path fill="#D7DADB" d="M540,387.7c-2.5,0-4.5-2-4.5-4.5c0-2.5,2-4.5,4.5-4.5c2.5,0,4.5,2,4.5,4.5
		C544.4,385.7,542.4,387.7,540,387.7"/>
	<path fill="#D7DADB" d="M517.6,387.7c-2.5,0-4.5-2-4.5-4.5c0-2.5,2-4.5,4.5-4.5c2.5,0,4.5,2,4.5,4.5
		C522,385.7,520,387.7,517.6,387.7"/>
	<g>
		<circle fill="#D7DADB" cx="562.4" cy="360.8" r="4.5"/>
	</g>
	<g>
		<circle fill="#D7DADB" cx="540" cy="360.8" r="4.5"/>
	</g>
	<g>
		<circle fill="#D7DADB" cx="517.6" cy="360.8" r="4.5"/>
	</g>
	<g>
		<circle fill="#D7DADB" cx="562.4" cy="338.4" r="4.5"/>
	</g>
	<g>
		<circle fill="#D7DADB" cx="540" cy="338.4" r="4.5"/>
	</g>
	<g>
		<circle fill="#D7DADB" cx="517.6" cy="338.4" r="4.5"/>
	</g>
	<g>
		<circle fill="#D7DADB" cx="562.4" cy="316" r="4.5"/>
	</g>
	<g>
		<circle fill="#D7DADB" cx="540" cy="316" r="4.5"/>
	</g>
	<g>
		<circle fill="#D7DADB" cx="517.6" cy="316" r="4.5"/>
	</g>
	<g>
		<circle fill="#D7DADB" cx="607.2" cy="298.1" r="4.5"/>
	</g>
	<g>
		<circle fill="#D7DADB" cx="583.3" cy="298.1" r="4.5"/>
	</g>
	<g>
		<circle fill="#D7DADB" cx="560.9" cy="298.1" r="4.5"/>
	</g>
	<g>
		<circle fill="#D7DADB" cx="538.5" cy="298.1" r="4.5"/>
	</g>
</g>
</svg>
