<!-- Generator: Adobe Illustrator 18.0.0, SVG Export Plug-In  -->
<svg version="1.1"
	 xmlns="http://www.w3.org/2000/svg" xmlns:xlink="http://www.w3.org/1999/xlink" xmlns:a="http://ns.adobe.com/AdobeSVGViewerExtensions/3.0/"
	 x="0px" y="0px" width="724.9px" height="689.1px" viewBox="0 0 724.9 689.1" enable-background="new 0 0 724.9 689.1"
	 xml:space="preserve">
<defs>
</defs>
<g>
	<path fill="#F2F2F2" d="M510.4,664c6.6-1.3,35.5-9.6,40.1-8c0.7,0.2,1.7,8.7,1.8,9.5c37.7-9.2,75.4-18.7,113-28.5l0.3-0.1
		c-0.5-2-0.1-4.7,1.3-4.6c0.6,0,1.6,1.5,1.5,0.9c-0.9-9.3,2.7-14.4,5.5-21.4c0.9-2.2,4.8-1.5,4.8-2.1c0.2-1.7-3.3-3.3-2.3-4.7
		c2.7-3.9,3.8,2.5,4.4-6.1c0.1-2.1,2.6,1.6,2.4,0.8c-2.4-11.3-5.6-23.8,1.5-35c0.2-0.5,0.4-1.1,0.7-1.4c0.2-0.3,0.4-0.4,0.6-0.6
		c3.4-4.1,11.1-6.8,12.5-11.9c1.7-6.4-2.8-10.1-2.1-16.2c0.4-3.8,6.5-5.3,6.6-6.2c0.4-2.9-7.4-4.6-3.6-8.3
		c16.8-16.6,11.4-1.6,18.2,5.5c0,0-2.4,2.6-2.5,2.7l0.3,0.4c3.4-3,7.6-4.6,9-9.6c2.7-9.4-1.7-16.7-2.7-25.3
		c-0.8-6.8,1.1-15.2,0.9-22.1c0,0,0,0,0-0.1l-0.2-0.1c-26.2-24.3-26.4-106-67.4-110.2c-7.6-0.8-7,6.9-11.2,9.6
		c-3.8,2.4-9.5,3-13.8,5.1c-3.1,1.4-1,5.4-3.2,7.2c-2.2,1.7-5.6,1.1-7.5,2.9c-0.9,0.8,5.9-1,5.4,2.1c-0.4,2.3-7.8,24.5-8,24.6
		c-2.8,1.9-1.5-3.5-3.7-2.2c-4.9,2.8-2.9,16.4-10.5,17.4c-2.9,0.4-5.7-3.1-8.9-3.1c-5.5-0.1-10.3-0.9-13.8-5.6
		c-3.9-5.2-2.8-29.5,1.2-34.8c0.1-0.2,0.3-0.3,0.5-0.3c16.2-0.2,8.4-4.8,12.8-8.3c1.5-1.2,4.5-0.5,5.5-1.7
		c1.9-2.3-1.3-18.9-0.1-23.7c0.6-2.3,3.7-5.5,6.4-4.5c1,0.4-1.2,4.3,0.4,3.1c1.6-1.2,1.9-6.2,3.1-8.1c1.3-1.9,3.8-1.2,4.9-3.3
		c2.1-3.8-2.6-17.3-3.4-22c-1.9-11.3,0.6-31.8-9.2-40.4c-2.4-2.1-6.9-2.6-9.6-4.8c-1.4-1.1-2.5-4.8-4-6.4c-1.7-2,1.3-9.5,5-10.5
		c1.7-0.4,5.9,6.5,9.6,3.4c0.1-0.1,0.2-0.4,0.1-0.6c-1.1-3.4-3.2-0.2-4.9-3.1c-0.8-1.5-0.3-5.3-1.3-8.4c-0.9-2.8-8.6-5.2-10.5-10
		c-0.8-1.9,2-2,1.5-3.8c-2-7.6-15.2-5.3-19.1-6.1c-4.1-0.9-7.5-4.4-10.9-5c-3-0.5-5.6,1.4-9,0.5c-3.4-0.8-5.8-5-9.1-5.2
		c-4.8-0.3-10.7,2.3-15.3,1.2c-5.3-1.2-6.3-16.2-22.1-15.2c-3.1,0.8-6.2,3.2-9.4,3.3c-4.4,0.1-20.5-11.2-27.5-11.7
		c-1.1-0.1-1.6,5.1-3.8,5.8c-2.9,1-11.4-1-13.7,1.3c-0.4,0.5,6.6,2.7,4.3,5.7c-4.5,5.9-11.6,13.3-9.2,21.4c1.7,5.5,4.2,9.7,9.7,12
		c2,0.8,10.7-2.1,8.7,2.3c-1.5,3.5-25.1,6-33,19.2c-4.7,7.8,1.6,14.9,2.8,22.8c1.9,12.2-0.7,22.2-4.3,33.6c-0.8,2.6,0,6.6-3.5,7.6
		c-1.3,0.4-0.8-1.7-0.8-2.2c0.3-4.1,5.1-25.3,1-25.9c-3.4-0.5-3,26.1-5.2,26.4c-4.2,0.6-5.1-9.2-4.7-11.6c0.3-2.4,2.2-4.2,2-6.7
		c-0.4-5.5-8-6.5-0.1-13.1c0.4-0.4,0.4-0.7,0.2-1.2c-0.8-2.8-5.3-5.4-4.7-8.8c0.5-2.9,10.3-8.1,3.6-9.5
		c-7.1-1.4-13.9,27.1-16.4,32.8c-0.5,1.1-0.8,1.6-1.8,2.2c-2,1.3-6-2-8.3-2.3c-1.5-0.2-2.9,6.8-3.6,8.1c-1.1,2.2-4.2-0.8-5.8,0.7
		c-4.1,3.6,4.5,15.6,1.3,20.2c-2.5,3.5-9.5,1.9-12.8,6.7c-2.3,3.3,2.9,8.8,4.2,11.7c0.6,1.4,2.1,26.7,1.8,28.7
		c-1.3,7.1-4,16.8-6.9,23.6c-1.9,4.5-7.8,8.4-8.5,13.1c-0.6,4.5,5.9,8.9,8.2,11.8c0.7,0.9-0.2,3.8,0.2,5c1,4.2,3.9,7.9,4.7,12.1
		c1.6,8.5-8.8,14.1-5.8,23.4c3.9,12.1,14.2,25.5,21.2,36.3c0.1,0.1,2.4,4.7,3.2,4.7c2.8,0,4.9-6.4,7-4.6c2,1.7-5.7,6.1-5.5,6.5
		c13.1,23.2,18.4,44.9,20.3,71.3c1.6,23-5.8,36.3-12.8,56.6c-3.4,10.1-4,20.5-8.4,30.3c-2.6,5.7-7.6,12-13.7,17.8l0.1,0
		C421,681.1,465.7,672.8,510.4,664"/>
	<path fill="#F2F2F2" d="M6.7,174.7c1.3,0.3,0.6,3,1.8,3.7c2.3,1.4,6.3,1.1,8.4,2.9c4.8,4,5.2,15,10.4,18.3
		c5.5,3.4,30.3,4.1,37.9,5.1c14,1.8,31.3,1.4,44.9,5.7c7.6,2.4,20.9,12.8,28.9,11.7c1.9-0.3,3.1-2.8,5-2.7c2.2,0.1,3.7,3,5.9,3.1
		c3,0.2,6.2-4.5,10.4-3.4c3.2,0.8,8.9-0.9,12.3,0.2c0,0,3.2,3.4,3.2,3.4c5.1,1.4,13.7-5.1,17.9,1.3c4.1,6.1,1.1,7.1,2,13.4
		c0.1,0.6-0.3,1.8,0.3,1.9c3.8,0.7,7.4,1.3,11.2,1.6c0.9,0.1,2.8,0.2,2.8,0.2c2.6,1.5,12.3,5.1,13.5,7.8l-2.1,4.3
		c0.3,1.7,5,3.4,4.9,5.2c0,0-3.4,4.4-3.4,4.5c-0.2,2.3,4,5,3.9,7.3c-0.3,5.7-7,8.7-4.4,16.4c1.9,5.6,14.9-7,18.9-2.9
		c1.8,1.8-5.9,17.6-3.5,22.2c1.1,2.1,7.4,7,9.5,7.4c0.4,0.1,1,0.2,1.6,0.3c-0.3-3.3-0.5-6.1,0-7c9.6-18.5,15.9-36,22.9-55.1
		c2.3-6.1,9.8-14.1,9.6-18.9c-0.1-2.3,1.7-20.6,3.9-21.3c1.1-0.3,1.6,1.4,2,2.1c1.1,2.2-2,5.8-2.3,7.9c-0.2,1,3.8,16.2,5.1,17.1
		c0.7,0.5,1.2-3,1.5-3.3c1.4-1.4,6.2-0.8,7.4-3.4c1.6-3.4,1.9-14.6,3.2-16.7c2-3.3,6.2,2.3,9.6,1.1c2.6-0.9,4.1-9.4,8.3-7.2
		c3.8,2,0.4,8.1-0.3,10.6c-0.4,1.4,2.2,0.8,1.4,2.4c-0.9,1.6-4.1-1.3-5.3,0.3c-1.1,1.4-1.1,7-1.8,9.2c-0.5,1.6-3.1,1.7-3.1,3.4
		c0.1,2.9,7,9.4,9.5,7.7c0.5-0.4,0.5-1.2,0.3-1.8c-3.6-8.1,1.9-8.6,3.9-12.7c0.6-1.1-0.9-4.2,0.7-4.6c3-0.7,10.4-5.5,12.1-7.8
		c-2.1-14.6,9-23.7,23.1-22.4c2.3,0.2,7.7,3.2,9.5,2.5c1.5-0.5-1.5-3.9-0.1-4.9c5.8-3.9,13.5-0.5,18.6-3.8
		c5.1-3.3,4.1-12.3,8.4-16.5c3.9-3.8,24.4-2,29.3-1.5c15.2,1.4,23.8,12.6,36.2,17.6c1,0.4,2.2,1.5,3,0.8c0.6-0.4,2.7-1.4,2.8-2
		c0.3-2.1-2.7-3.5-3.2-5.5c-0.4-1.3,1.4-17.3,3.9-17.6c8.9-1.1,6.7,3.9,10.8,6.8c0.5,0.4,0.7-1.9,1-2.2c3.1-3.1,2.3,3.5,3.8-2.5
		c0.1-0.2,0.3-0.3,0.4-0.3c4.1-0.5,4.7,0.9,7.7,1.6c1.3,0.3,2-2.1,3.3-2.2c8.5-0.5,27.6,3.1,33.7-3.1c4.7-4.8-9.9-7.6-11.6-9.2
		c-1.2-1.2-3.2-2.7-3.6-4.3c-0.2-0.8,0.7-2.2,1.2-3.2c-0.4-0.5-0.7-1-1.1-1.5c-3.4-0.8-7.3-3.2-10.5-2.9c-1.9,0.3-3.8,4.3-5.6,2.4
		c-6.1-6.2,2.1-4.8,2.9-9.1c0.2-0.9-14.9-24.9-17.6-26.3c-0.7-0.3-1-0.4-1.4-0.4c-2.3,1.3-4.4,2.7-6.5,3.9c-2.4,3.3-3.7,7.7-8.6,9.4
		c-3.9,1.3-3.4-8.1-10.4-7.1c-2.8,0.4-7,5.8-10.7,6.8c-3.2,0.9-7.9-3.3-10-3.2c-2.7,0.3-5.2,4-8,1.7c-0.5-0.5-3-22.2-3-25.3
		c0-1.3,4.5-9.1,3-8.8c-3.5,0.6-21.4,5.7-23.6,7.2c-5.3,3.7-10.9,10.5-17.1,12.4c-10,3.1-22,0.3-31.7,3.3
		c-7.6,2.3-11.5,7.3-19.1,5.6c-2.1-0.5-9.2,9.2-10.8,10.7c-3.5,3.3-9.9,5.8-12.4,8.2c-5.2,4.9-6.3,11.1-10.5,16.7
		c-0.8,1-8.5-5.3-11.2-5.4c-4.2-0.2-2.1,6-6.5,6.2c-6.5,0.4-8.2-8.6-14.4-9.1c-2.8-0.2-13.5,11.4-26.7,8.4c-5.3-1.2-2-9.6-4.2-10.2
		c-6.7-1.8-13.8-7.8-18.4-14.1c-1.4-1.9-0.5-4.2-2.2-5.7c-5.8-5-7-2.4-12.4-7.2c-6.4-5.6-25.9-2.2-34,0.9c-1.5,0.6-8,11.9-8.5,11.2
		c-2.2-3.4,10.4-17.3,10-17.9c-0.8-1.1-3.5,1.3-3.7,1.5c-5.2,4.5-9.1,9.5-13.9,11.9c-0.2,0.1-0.7,0.6-0.8,0.8
		c-0.8,1.6-0.2,4.8-1.4,7.6c-0.4,0.8-0.7,1.7-1,2.4c-1.1,2.4-0.8,1.8-2.3,3.3c-0.7,0.1-1.4-0.1-1.1-1.1c1.2-3.7,1.2-17,0.4-22.6
		c-0.8-6.1-5.1-6-7.4-7.6c-2-1.4,2.2-6.9-1.3-8.8c-2.8-1.5-6,1-8.7-0.9c-3.2-2.2,1.8-11.7-3.3-11.2c-2.6,0.3-2.7,2.1-4,4
		c-3.5,5.1-9.6,8.1-12.6,12.9c-2.7,4.2-1,8.6-5.3,12.2c-3.7,3-8.6,1.2-12.2,2.8c-3.4,1.5-10.3,17.1-20.6,20.7
		c-8.1,2.8-23.2,2.6-29.8,6.6c-7.2,4.3-10.2,13.8-16.6,19.2C21.8,164,10.8,165.4,4,170c-1,0.7-2.5,2.5-4,4
		C2.9,179.7,2.1,173.6,6.7,174.7"/>
	<path fill="#F2F2F2" d="M181.5,60.7c-12.2,9.9-16.8,21.5-24.1,31.1c-1.1,1.5-3.7,14.6-5.2,14.5c-0.6,0-6.6-8.1-6.6-8.9
		c-0.2-4.6,6.6-6.6,4.3-13.1c-0.2-0.6-0.9-1.3-1.5-1.1c-8.1,2.9,5.4,5.7-0.8,9.9c-0.7,0.5-1.8,0.7-2.6,0.4c-0.7-0.3-1.2-3.4-1.8-3.7
		c-3.4-1.4-9.5,4.1-11-2.3c-0.8-3.4,8.8-21.8,11.1-25.1c3.7-5.5,11.6-6.8,15.8-10.2c1.2-1,0.7-3.4,2-4.2c3-1.9,9.9-2.4,12.7-3.9
		c0.9-0.5,2,0,3,0c2,0,4,0,6,0.1c1,0,2,0.3,3,0c1.8-0.4,3.1-2.8,4.9-2.7c1.2,0,9.5,4.7,9,6.5c-0.7,2.4-24.7,3.7-24.2,7.6
		C176.1,60.6,183.3,50.6,181.5,60.7"/>
	<path fill="#F2F2F2" d="M123.6,0.4c1.2-1.9-4.7,4.3-5.9,3.6c-0.5-0.3-1.3,0.7-2,1.4c-2.6,3.2-8.8,6.3-13.3,9.8
		c-1.7,1.3-9.7,5.8-9.1,8.3c0.3,0.9,2.2-1.4,2.7-1.1c0.4,0.3-3.6,3.7-2.3,4.5c4.2,2.6,9.3-2.3,13.3-4.8c0.8-0.5-4,0.5-4.1-0.1
		c-0.2-1.7,10.2-7,12.4-8.2c1.2-0.7,8.4-11,9.4-12.7C126.9-2.8,121.1,4.5,123.6,0.4z"/>
</g>
</svg>
