<!-- Generator: Adobe Illustrator 18.0.0, SVG Export Plug-In  -->
<svg version="1.1"
	 xmlns="http://www.w3.org/2000/svg" xmlns:xlink="http://www.w3.org/1999/xlink" xmlns:a="http://ns.adobe.com/AdobeSVGViewerExtensions/3.0/"
	 x="0px" y="0px" width="600.8px" height="385.5px" viewBox="0 0 600.8 385.5" enable-background="new 0 0 600.8 385.5"
	 xml:space="preserve">
<defs>
</defs>
<g>
	<g>
		<g>
			<g>
				<circle fill="#D7DADB" cx="288.1" cy="380.8" r="4.7"/>
			</g>
			<g>
				<circle fill="#D7DADB" cx="264.5" cy="380.8" r="4.7"/>
			</g>
			<g>
				<circle fill="#D7DADB" cx="193.7" cy="380.8" r="4.7"/>
			</g>
			<g>
				<circle fill="#D7DADB" cx="170.1" cy="380.8" r="4.7"/>
			</g>
			<g>
				<circle fill="#D7DADB" cx="146.4" cy="380.8" r="4.7"/>
			</g>
			<g>
				<circle fill="#D7DADB" cx="122.8" cy="380.8" r="4.7"/>
			</g>
		</g>
		<g>
			<g>
				<circle fill="#D7DADB" cx="311.8" cy="357.1" r="4.7"/>
			</g>
			<g>
				<circle fill="#D7DADB" cx="288.1" cy="357.1" r="4.7"/>
			</g>
			<g>
				<circle fill="#D7DADB" cx="264.5" cy="357.1" r="4.7"/>
			</g>
			<g>
				<circle fill="#D7DADB" cx="240.9" cy="357.1" r="4.7"/>
			</g>
			<g>
				<circle fill="#D7DADB" cx="217.3" cy="357.1" r="4.7"/>
			</g>
			<g>
				<circle fill="#D7DADB" cx="193.7" cy="357.1" r="4.7"/>
			</g>
			<g>
				<circle fill="#D7DADB" cx="170.1" cy="357.1" r="4.7"/>
			</g>
			<g>
				<circle fill="#D7DADB" cx="146.4" cy="357.1" r="4.7"/>
			</g>
			<g>
				<circle fill="#D7DADB" cx="122.8" cy="357.1" r="4.7"/>
			</g>
		</g>
		<g>
			<g>
				<circle fill="#D7DADB" cx="311.8" cy="333.5" r="4.7"/>
			</g>
			<g>
				<circle fill="#D7DADB" cx="288.1" cy="333.5" r="4.7"/>
			</g>
			<g>
				<circle fill="#D7DADB" cx="264.5" cy="333.5" r="4.7"/>
			</g>
			<g>
				<circle fill="#D7DADB" cx="240.9" cy="333.5" r="4.7"/>
			</g>
			<g>
				<circle fill="#D7DADB" cx="217.3" cy="333.5" r="4.7"/>
			</g>
			<g>
				<circle fill="#D7DADB" cx="193.7" cy="333.5" r="4.7"/>
			</g>
			<g>
				<circle fill="#D7DADB" cx="170.1" cy="333.5" r="4.7"/>
			</g>
			<g>
				<circle fill="#D7DADB" cx="146.4" cy="333.5" r="4.7"/>
			</g>
			<g>
				<circle fill="#D7DADB" cx="122.8" cy="333.5" r="4.7"/>
			</g>
		</g>
		<g>
			<g>
				<circle fill="#D7DADB" cx="311.8" cy="309.9" r="4.7"/>
			</g>
			<g>
				<circle fill="#D7DADB" cx="288.1" cy="309.9" r="4.7"/>
			</g>
			<g>
				<circle fill="#D7DADB" cx="264.5" cy="309.9" r="4.7"/>
			</g>
			<g>
				<circle fill="#D7DADB" cx="240.9" cy="309.9" r="4.7"/>
			</g>
			<g>
				<circle fill="#D7DADB" cx="217.3" cy="309.9" r="4.7"/>
			</g>
			<g>
				<circle fill="#D7DADB" cx="193.7" cy="309.9" r="4.7"/>
			</g>
			<g>
				<circle fill="#D7DADB" cx="170.1" cy="309.9" r="4.7"/>
			</g>
			<g>
				<circle fill="#D7DADB" cx="146.4" cy="309.9" r="4.7"/>
			</g>
			<g>
				<circle fill="#D7DADB" cx="122.8" cy="309.9" r="4.7"/>
			</g>
			<g>
				<circle fill="#D7DADB" cx="99.2" cy="309.9" r="4.7"/>
			</g>
			<g>
				<circle fill="#D7DADB" cx="75.6" cy="309.9" r="4.7"/>
			</g>
		</g>
		<g>
			<g>
				<circle fill="#D7DADB" cx="311.8" cy="286.3" r="4.7"/>
			</g>
			<g>
				<circle fill="#D7DADB" cx="288.1" cy="286.3" r="4.7"/>
			</g>
			<g>
				<circle fill="#D7DADB" cx="264.5" cy="286.3" r="4.7"/>
			</g>
			<g>
				<circle fill="#D7DADB" cx="240.9" cy="286.3" r="4.7"/>
			</g>
			<g>
				<circle fill="#D7DADB" cx="217.3" cy="286.3" r="4.7"/>
			</g>
			<g>
				<circle fill="#D7DADB" cx="193.7" cy="286.3" r="4.7"/>
			</g>
			<g>
				<circle fill="#D7DADB" cx="170.1" cy="286.3" r="4.7"/>
			</g>
			<g>
				<circle fill="#D7DADB" cx="146.4" cy="286.3" r="4.7"/>
			</g>
			<g>
				<circle fill="#D7DADB" cx="122.8" cy="286.3" r="4.7"/>
			</g>
			<g>
				<circle fill="#D7DADB" cx="99.2" cy="286.3" r="4.7"/>
			</g>
			<g>
				<circle fill="#D7DADB" cx="75.6" cy="286.3" r="4.7"/>
			</g>
			<g>
				<circle fill="#D7DADB" cx="52" cy="286.3" r="4.7"/>
			</g>
			<g>
				<circle fill="#D7DADB" cx="28.3" cy="286.3" r="4.7"/>
			</g>
		</g>
		<g>
			<g>
				<circle fill="#D7DADB" cx="311.8" cy="262.7" r="4.7"/>
			</g>
			<g>
				<circle fill="#D7DADB" cx="288.1" cy="262.7" r="4.7"/>
			</g>
			<g>
				<circle fill="#D7DADB" cx="264.5" cy="262.7" r="4.7"/>
			</g>
			<g>
				<circle fill="#D7DADB" cx="240.9" cy="262.7" r="4.7"/>
			</g>
			<g>
				<circle fill="#D7DADB" cx="217.3" cy="262.7" r="4.7"/>
			</g>
			<g>
				<circle fill="#D7DADB" cx="193.7" cy="262.7" r="4.7"/>
			</g>
			<g>
				<circle fill="#D7DADB" cx="170.1" cy="262.7" r="4.7"/>
			</g>
			<g>
				<circle fill="#D7DADB" cx="146.4" cy="262.7" r="4.7"/>
			</g>
			<g>
				<circle fill="#D7DADB" cx="122.8" cy="262.7" r="4.7"/>
			</g>
			<g>
				<circle fill="#D7DADB" cx="99.2" cy="262.7" r="4.7"/>
			</g>
			<g>
				<circle fill="#D7DADB" cx="75.6" cy="262.7" r="4.7"/>
			</g>
			<g>
				<circle fill="#D7DADB" cx="52" cy="262.7" r="4.7"/>
			</g>
			<g>
				<circle fill="#D7DADB" cx="28.3" cy="262.7" r="4.7"/>
			</g>
		</g>
		<g>
			<g>
				<circle fill="#D7DADB" cx="311.8" cy="239" r="4.7"/>
			</g>
			<g>
				<circle fill="#D7DADB" cx="288.1" cy="239" r="4.7"/>
			</g>
			<g>
				<circle fill="#D7DADB" cx="264.5" cy="239" r="4.7"/>
			</g>
			<g>
				<circle fill="#D7DADB" cx="240.9" cy="239" r="4.7"/>
			</g>
			<g>
				<circle fill="#D7DADB" cx="217.3" cy="239" r="4.7"/>
			</g>
			<g>
				<circle fill="#D7DADB" cx="193.7" cy="239" r="4.7"/>
			</g>
			<g>
				<circle fill="#D7DADB" cx="170.1" cy="239" r="4.7"/>
			</g>
			<g>
				<circle fill="#D7DADB" cx="146.4" cy="239" r="4.7"/>
			</g>
			<g>
				<circle fill="#D7DADB" cx="122.8" cy="239" r="4.7"/>
			</g>
			<g>
				<circle fill="#D7DADB" cx="99.2" cy="239" r="4.7"/>
			</g>
			<g>
				<circle fill="#D7DADB" cx="75.6" cy="239" r="4.7"/>
			</g>
			<g>
				<circle fill="#D7DADB" cx="52" cy="239" r="4.7"/>
			</g>
			<g>
				<circle fill="#D7DADB" cx="28.3" cy="239" r="4.7"/>
			</g>
		</g>
		<g>
			<g>
				<circle fill="#D7DADB" cx="311.8" cy="215.4" r="4.7"/>
			</g>
			<g>
				<circle fill="#D7DADB" cx="288.1" cy="215.4" r="4.7"/>
			</g>
			<g>
				<circle fill="#D7DADB" cx="264.5" cy="215.4" r="4.7"/>
			</g>
			<g>
				<circle fill="#D7DADB" cx="240.9" cy="215.4" r="4.7"/>
			</g>
			<g>
				<circle fill="#D7DADB" cx="217.3" cy="215.4" r="4.7"/>
			</g>
			<g>
				<circle fill="#D7DADB" cx="193.7" cy="215.4" r="4.7"/>
			</g>
			<g>
				<circle fill="#D7DADB" cx="170.1" cy="215.4" r="4.7"/>
			</g>
			<g>
				<circle fill="#D7DADB" cx="146.4" cy="215.4" r="4.7"/>
			</g>
			<g>
				<circle fill="#D7DADB" cx="122.8" cy="215.4" r="4.7"/>
			</g>
			<g>
				<circle fill="#D7DADB" cx="99.2" cy="215.4" r="4.7"/>
			</g>
			<g>
				<circle fill="#D7DADB" cx="75.6" cy="215.4" r="4.7"/>
			</g>
			<g>
				<circle fill="#D7DADB" cx="52" cy="215.4" r="4.7"/>
			</g>
			<g>
				<circle fill="#D7DADB" cx="28.3" cy="215.4" r="4.7"/>
			</g>
		</g>
		<g>
			<g>
				<circle fill="#D7DADB" cx="311.8" cy="191.8" r="4.7"/>
			</g>
			<g>
				<circle fill="#D7DADB" cx="288.1" cy="191.8" r="4.7"/>
			</g>
			<g>
				<circle fill="#D7DADB" cx="264.5" cy="191.8" r="4.7"/>
			</g>
			<g>
				<circle fill="#D7DADB" cx="240.9" cy="191.8" r="4.7"/>
			</g>
			<g>
				<circle fill="#D7DADB" cx="217.3" cy="191.8" r="4.7"/>
			</g>
			<g>
				<circle fill="#D7DADB" cx="193.7" cy="191.8" r="4.7"/>
			</g>
			<g>
				<circle fill="#D7DADB" cx="170.1" cy="191.8" r="4.7"/>
			</g>
			<g>
				<circle fill="#D7DADB" cx="99.2" cy="191.8" r="4.7"/>
			</g>
			<g>
				<circle fill="#D7DADB" cx="75.6" cy="191.8" r="4.7"/>
			</g>
			<g>
				<circle fill="#D7DADB" cx="52" cy="191.8" r="4.7"/>
			</g>
			<g>
				<circle fill="#D7DADB" cx="28.3" cy="191.8" r="4.7"/>
			</g>
		</g>
		<g>
			<g>
				<circle fill="#D7DADB" cx="311.8" cy="168.2" r="4.7"/>
			</g>
			<g>
				<circle fill="#D7DADB" cx="288.1" cy="168.2" r="4.7"/>
			</g>
			<g>
				<circle fill="#D7DADB" cx="264.5" cy="168.2" r="4.7"/>
			</g>
			<g>
				<circle fill="#D7DADB" cx="240.9" cy="168.2" r="4.7"/>
			</g>
			<g>
				<circle fill="#D7DADB" cx="217.3" cy="168.2" r="4.7"/>
			</g>
			<g>
				<circle fill="#D7DADB" cx="193.7" cy="168.2" r="4.7"/>
			</g>
			<g>
				<circle fill="#D7DADB" cx="170.1" cy="168.2" r="4.7"/>
			</g>
			<g>
				<circle fill="#D7DADB" cx="122.8" cy="168.2" r="4.7"/>
			</g>
			<g>
				<circle fill="#D7DADB" cx="99.2" cy="168.2" r="4.7"/>
			</g>
			<g>
				<circle fill="#D7DADB" cx="75.6" cy="168.2" r="4.7"/>
			</g>
			<g>
				<circle fill="#D7DADB" cx="52" cy="168.2" r="4.7"/>
			</g>
			<g>
				<circle fill="#D7DADB" cx="28.3" cy="168.2" r="4.7"/>
			</g>
		</g>
		<g>
			<g>
				<circle fill="#D7DADB" cx="311.8" cy="144.6" r="4.7"/>
			</g>
			<g>
				<circle fill="#D7DADB" cx="288.1" cy="144.6" r="4.7"/>
			</g>
			<g>
				<circle fill="#D7DADB" cx="264.5" cy="144.6" r="4.7"/>
			</g>
			<g>
				<circle fill="#D7DADB" cx="240.9" cy="144.6" r="4.7"/>
			</g>
			<g>
				<circle fill="#D7DADB" cx="217.3" cy="144.6" r="4.7"/>
			</g>
			<g>
				<circle fill="#D7DADB" cx="193.7" cy="144.6" r="4.7"/>
			</g>
			<g>
				<circle fill="#D7DADB" cx="170.1" cy="144.6" r="4.7"/>
			</g>
			<g>
				<circle fill="#D7DADB" cx="122.8" cy="144.6" r="4.7"/>
			</g>
			<g>
				<circle fill="#D7DADB" cx="99.2" cy="144.6" r="4.7"/>
			</g>
			<g>
				<circle fill="#D7DADB" cx="75.6" cy="144.6" r="4.7"/>
			</g>
			<g>
				<circle fill="#D7DADB" cx="52" cy="144.6" r="4.7"/>
			</g>
			<g>
				<circle fill="#D7DADB" cx="28.3" cy="144.6" r="4.7"/>
			</g>
		</g>
		<g>
			<g>
				<circle fill="#D7DADB" cx="311.8" cy="120.9" r="4.7"/>
			</g>
			<g>
				<circle fill="#D7DADB" cx="288.1" cy="120.9" r="4.7"/>
			</g>
			<g>
				<circle fill="#D7DADB" cx="264.5" cy="120.9" r="4.7"/>
			</g>
			<g>
				<circle fill="#D7DADB" cx="240.9" cy="120.9" r="4.7"/>
			</g>
			<g>
				<circle fill="#D7DADB" cx="217.3" cy="120.9" r="4.7"/>
			</g>
			<g>
				<circle fill="#D7DADB" cx="193.7" cy="120.9" r="4.7"/>
			</g>
			<g>
				<circle fill="#D7DADB" cx="170.1" cy="120.9" r="4.7"/>
			</g>
			<g>
				<circle fill="#D7DADB" cx="122.8" cy="120.9" r="4.7"/>
			</g>
			<g>
				<circle fill="#D7DADB" cx="99.2" cy="120.9" r="4.7"/>
			</g>
			<g>
				<circle fill="#D7DADB" cx="75.6" cy="120.9" r="4.7"/>
			</g>
			<g>
				<circle fill="#D7DADB" cx="52" cy="120.9" r="4.7"/>
			</g>
			<g>
				<circle fill="#D7DADB" cx="28.3" cy="120.9" r="4.7"/>
			</g>
			<g>
				<circle fill="#D7DADB" cx="4.7" cy="120.9" r="4.7"/>
			</g>
		</g>
		<g>
			<g>
				<circle fill="#D7DADB" cx="311.8" cy="97.3" r="4.7"/>
			</g>
			<g>
				<circle fill="#D7DADB" cx="288.1" cy="97.3" r="4.7"/>
			</g>
			<g>
				<circle fill="#D7DADB" cx="264.5" cy="97.3" r="4.7"/>
			</g>
			<g>
				<circle fill="#D7DADB" cx="240.9" cy="97.3" r="4.7"/>
			</g>
			<g>
				<circle fill="#D7DADB" cx="217.3" cy="97.3" r="4.7"/>
			</g>
			<g>
				<circle fill="#D7DADB" cx="193.7" cy="97.3" r="4.7"/>
			</g>
			<g>
				<circle fill="#D7DADB" cx="122.8" cy="97.3" r="4.7"/>
			</g>
			<g>
				<circle fill="#D7DADB" cx="99.2" cy="97.3" r="4.7"/>
			</g>
			<g>
				<circle fill="#D7DADB" cx="75.6" cy="97.3" r="4.7"/>
			</g>
			<g>
				<circle fill="#D7DADB" cx="52" cy="97.3" r="4.7"/>
			</g>
			<g>
				<circle fill="#D7DADB" cx="28.3" cy="97.3" r="4.7"/>
			</g>
			<g>
				<circle fill="#D7DADB" cx="4.7" cy="97.3" r="4.7"/>
			</g>
		</g>
		<g>
			<g>
				<circle fill="#D7DADB" cx="264.5" cy="73.7" r="4.7"/>
			</g>
			<g>
				<circle fill="#D7DADB" cx="240.9" cy="73.7" r="4.7"/>
			</g>
			<g>
				<circle fill="#D7DADB" cx="217.3" cy="73.7" r="4.7"/>
			</g>
			<g>
				<circle fill="#D7DADB" cx="193.7" cy="73.7" r="4.7"/>
			</g>
			<g>
				<circle fill="#D7DADB" cx="170.1" cy="73.7" r="4.7"/>
			</g>
			<g>
				<circle fill="#D7DADB" cx="28.3" cy="73.7" r="4.7"/>
			</g>
			<g>
				<circle fill="#D7DADB" cx="4.7" cy="73.7" r="4.7"/>
			</g>
		</g>
	</g>
	<g>
		<circle fill="#D7DADB" cx="312.7" cy="73.7" r="4.7"/>
	</g>
	<g>
		<circle fill="#D7DADB" cx="289.1" cy="73.7" r="4.7"/>
	</g>
	<path fill="#D7DADB" d="M311.9,54.8c-2.6,0-4.7-2.1-4.7-4.7c0-2.6,2.1-4.7,4.7-4.7c2.6,0,4.7,2.1,4.7,4.7
		C316.6,52.7,314.5,54.8,311.9,54.8"/>
	<path fill="#D7DADB" d="M288.3,54.8c-2.6,0-4.7-2.1-4.7-4.7c0-2.6,2.1-4.7,4.7-4.7c2.6,0,4.7,2.1,4.7,4.7
		C293,52.7,290.9,54.8,288.3,54.8"/>
	<path fill="#D7DADB" d="M264.7,54.8c-2.6,0-4.7-2.1-4.7-4.7c0-2.6,2.1-4.7,4.7-4.7c2.6,0,4.7,2.1,4.7,4.7
		C269.4,52.7,267.3,54.8,264.7,54.8"/>
	<path fill="#D7DADB" d="M241.1,54.8c-2.6,0-4.7-2.1-4.7-4.7c0-2.6,2.1-4.7,4.7-4.7c2.6,0,4.7,2.1,4.7,4.7
		C245.8,52.7,243.7,54.8,241.1,54.8"/>
	<path fill="#D7DADB" d="M217.5,54.8c-2.6,0-4.7-2.1-4.7-4.7c0-2.6,2.1-4.7,4.7-4.7c2.6,0,4.7,2.1,4.7,4.7
		C222.2,52.7,220.1,54.8,217.5,54.8"/>
	<path fill="#D7DADB" d="M193.8,54.8c-2.6,0-4.7-2.1-4.7-4.7c0-2.6,2.1-4.7,4.7-4.7c2.6,0,4.7,2.1,4.7,4.7
		C198.6,52.7,196.4,54.8,193.8,54.8"/>
	<path fill="#D7DADB" d="M170.2,54.8c-2.6,0-4.7-2.1-4.7-4.7c0-2.6,2.1-4.7,4.7-4.7c2.6,0,4.7,2.1,4.7,4.7
		C174.9,52.7,172.8,54.8,170.2,54.8"/>
	<path fill="#D7DADB" d="M146.6,54.8c-2.6,0-4.7-2.1-4.7-4.7c0-2.6,2.1-4.7,4.7-4.7c2.6,0,4.7,2.1,4.7,4.7
		C151.3,52.7,149.2,54.8,146.6,54.8"/>
	<path fill="#D7DADB" d="M4.9,54.8c-2.6,0-4.7-2.1-4.7-4.7c0-2.6,2.1-4.7,4.7-4.7c2.6,0,4.7,2.1,4.7,4.7C9.6,52.7,7.5,54.8,4.9,54.8
		"/>
	<g>
		<circle fill="#D7DADB" cx="264.7" cy="26.5" r="4.7"/>
	</g>
	<g>
		<circle fill="#D7DADB" cx="241.1" cy="26.5" r="4.7"/>
	</g>
	<g>
		<circle fill="#D7DADB" cx="217.5" cy="26.5" r="4.7"/>
	</g>
	<g>
		<circle fill="#D7DADB" cx="193.8" cy="26.5" r="4.7"/>
	</g>
	<g>
		<circle fill="#D7DADB" cx="170.2" cy="26.5" r="4.7"/>
	</g>
	<g>
		<circle fill="#D7DADB" cx="312.9" cy="26.5" r="4.7"/>
	</g>
	<g>
		<circle fill="#D7DADB" cx="289.2" cy="26.5" r="4.7"/>
	</g>
	<g>
		<circle fill="#D7DADB" cx="264.6" cy="4.7" r="4.7"/>
	</g>
	<g>
		<circle fill="#D7DADB" cx="241" cy="4.7" r="4.7"/>
	</g>
	<g>
		<circle fill="#D7DADB" cx="217.4" cy="4.7" r="4.7"/>
	</g>
	<g>
		<circle fill="#D7DADB" cx="193.8" cy="4.7" r="4.7"/>
	</g>
	<g>
		<circle fill="#D7DADB" cx="170.1" cy="4.7" r="4.7"/>
	</g>
	<g>
		<circle fill="#D7DADB" cx="146.5" cy="4.7" r="4.7"/>
	</g>
	<g>
		<circle fill="#D7DADB" cx="312.8" cy="4.7" r="4.7"/>
	</g>
	<g>
		<circle fill="#D7DADB" cx="289.1" cy="4.7" r="4.7"/>
	</g>
	<g>
		<g>
			<g>
				<circle fill="#D7DADB" cx="407.1" cy="357.1" r="4.7"/>
			</g>
			<g>
				<circle fill="#D7DADB" cx="383.5" cy="357.1" r="4.7"/>
			</g>
			<g>
				<circle fill="#D7DADB" cx="359.9" cy="357.1" r="4.7"/>
			</g>
			<g>
				<circle fill="#D7DADB" cx="336.3" cy="357.1" r="4.7"/>
			</g>
		</g>
		<g>
			<g>
				<circle fill="#D7DADB" cx="596.1" cy="333.5" r="4.7"/>
			</g>
			<g>
				<circle fill="#D7DADB" cx="572.5" cy="333.5" r="4.7"/>
			</g>
			<g>
				<circle fill="#D7DADB" cx="548.8" cy="333.5" r="4.7"/>
			</g>
			<g>
				<circle fill="#D7DADB" cx="525.2" cy="333.5" r="4.7"/>
			</g>
			<g>
				<circle fill="#D7DADB" cx="501.6" cy="333.5" r="4.7"/>
			</g>
			<g>
				<circle fill="#D7DADB" cx="478" cy="333.5" r="4.7"/>
			</g>
			<g>
				<circle fill="#D7DADB" cx="454.4" cy="333.5" r="4.7"/>
			</g>
			<g>
				<circle fill="#D7DADB" cx="430.7" cy="333.5" r="4.7"/>
			</g>
			<g>
				<circle fill="#D7DADB" cx="407.1" cy="333.5" r="4.7"/>
			</g>
			<g>
				<circle fill="#D7DADB" cx="383.5" cy="333.5" r="4.7"/>
			</g>
			<g>
				<circle fill="#D7DADB" cx="359.9" cy="333.5" r="4.7"/>
			</g>
			<g>
				<circle fill="#D7DADB" cx="336.3" cy="333.5" r="4.7"/>
			</g>
		</g>
		<g>
			<g>
				<circle fill="#D7DADB" cx="596.1" cy="309.9" r="4.7"/>
			</g>
			<g>
				<circle fill="#D7DADB" cx="572.5" cy="309.9" r="4.7"/>
			</g>
			<g>
				<circle fill="#D7DADB" cx="548.8" cy="309.9" r="4.7"/>
			</g>
			<g>
				<circle fill="#D7DADB" cx="525.2" cy="309.9" r="4.7"/>
			</g>
			<g>
				<circle fill="#D7DADB" cx="501.6" cy="309.9" r="4.7"/>
			</g>
			<g>
				<circle fill="#D7DADB" cx="478" cy="309.9" r="4.7"/>
			</g>
			<g>
				<circle fill="#D7DADB" cx="454.4" cy="309.9" r="4.7"/>
			</g>
			<g>
				<circle fill="#D7DADB" cx="430.7" cy="309.9" r="4.7"/>
			</g>
			<g>
				<circle fill="#D7DADB" cx="407.1" cy="309.9" r="4.7"/>
			</g>
			<g>
				<circle fill="#D7DADB" cx="383.5" cy="309.9" r="4.7"/>
			</g>
			<g>
				<circle fill="#D7DADB" cx="359.9" cy="309.9" r="4.7"/>
			</g>
			<g>
				<circle fill="#D7DADB" cx="336.3" cy="309.9" r="4.7"/>
			</g>
		</g>
		<g>
			<g>
				<circle fill="#D7DADB" cx="572.5" cy="286.3" r="4.7"/>
			</g>
			<g>
				<circle fill="#D7DADB" cx="548.8" cy="286.3" r="4.7"/>
			</g>
			<g>
				<circle fill="#D7DADB" cx="525.2" cy="286.3" r="4.7"/>
			</g>
			<g>
				<circle fill="#D7DADB" cx="501.6" cy="286.3" r="4.7"/>
			</g>
			<g>
				<circle fill="#D7DADB" cx="478" cy="286.3" r="4.7"/>
			</g>
			<g>
				<circle fill="#D7DADB" cx="454.4" cy="286.3" r="4.7"/>
			</g>
			<g>
				<circle fill="#D7DADB" cx="430.7" cy="286.3" r="4.7"/>
			</g>
			<g>
				<circle fill="#D7DADB" cx="407.1" cy="286.3" r="4.7"/>
			</g>
			<g>
				<circle fill="#D7DADB" cx="383.5" cy="286.3" r="4.7"/>
			</g>
			<g>
				<circle fill="#D7DADB" cx="359.9" cy="286.3" r="4.7"/>
			</g>
			<g>
				<circle fill="#D7DADB" cx="336.3" cy="286.3" r="4.7"/>
			</g>
		</g>
		<g>
			<g>
				<circle fill="#D7DADB" cx="572.5" cy="262.7" r="4.7"/>
			</g>
			<g>
				<circle fill="#D7DADB" cx="548.8" cy="262.7" r="4.7"/>
			</g>
			<g>
				<circle fill="#D7DADB" cx="525.2" cy="262.7" r="4.7"/>
			</g>
			<g>
				<circle fill="#D7DADB" cx="501.6" cy="262.7" r="4.7"/>
			</g>
			<g>
				<circle fill="#D7DADB" cx="478" cy="262.7" r="4.7"/>
			</g>
			<g>
				<circle fill="#D7DADB" cx="454.4" cy="262.7" r="4.7"/>
			</g>
			<g>
				<circle fill="#D7DADB" cx="430.7" cy="262.7" r="4.7"/>
			</g>
			<g>
				<circle fill="#D7DADB" cx="407.1" cy="262.7" r="4.7"/>
			</g>
			<g>
				<circle fill="#D7DADB" cx="383.5" cy="262.7" r="4.7"/>
			</g>
			<g>
				<circle fill="#D7DADB" cx="359.9" cy="262.7" r="4.7"/>
			</g>
			<g>
				<circle fill="#D7DADB" cx="336.3" cy="262.7" r="4.7"/>
			</g>
		</g>
		<g>
			<g>
				<circle fill="#D7DADB" cx="572.5" cy="239" r="4.7"/>
			</g>
			<g>
				<circle fill="#D7DADB" cx="548.8" cy="239" r="4.7"/>
			</g>
			<g>
				<circle fill="#D7DADB" cx="525.2" cy="239" r="4.7"/>
			</g>
			<g>
				<circle fill="#D7DADB" cx="501.6" cy="239" r="4.7"/>
			</g>
			<g>
				<circle fill="#D7DADB" cx="478" cy="239" r="4.7"/>
			</g>
			<g>
				<circle fill="#D7DADB" cx="454.4" cy="239" r="4.7"/>
			</g>
			<g>
				<circle fill="#D7DADB" cx="430.7" cy="239" r="4.7"/>
			</g>
			<g>
				<circle fill="#D7DADB" cx="407.1" cy="239" r="4.7"/>
			</g>
			<g>
				<circle fill="#D7DADB" cx="383.5" cy="239" r="4.7"/>
			</g>
			<g>
				<circle fill="#D7DADB" cx="359.9" cy="239" r="4.7"/>
			</g>
			<g>
				<circle fill="#D7DADB" cx="336.3" cy="239" r="4.7"/>
			</g>
		</g>
		<g>
			<g>
				<circle fill="#D7DADB" cx="572.5" cy="215.4" r="4.7"/>
			</g>
			<g>
				<circle fill="#D7DADB" cx="548.8" cy="215.4" r="4.7"/>
			</g>
			<g>
				<circle fill="#D7DADB" cx="525.2" cy="215.4" r="4.7"/>
			</g>
			<g>
				<circle fill="#D7DADB" cx="501.6" cy="215.4" r="4.7"/>
			</g>
			<g>
				<circle fill="#D7DADB" cx="478" cy="215.4" r="4.7"/>
			</g>
			<g>
				<circle fill="#D7DADB" cx="454.4" cy="215.4" r="4.7"/>
			</g>
			<g>
				<circle fill="#D7DADB" cx="430.7" cy="215.4" r="4.7"/>
			</g>
			<g>
				<circle fill="#D7DADB" cx="407.1" cy="215.4" r="4.7"/>
			</g>
			<g>
				<circle fill="#D7DADB" cx="383.5" cy="215.4" r="4.7"/>
			</g>
			<g>
				<circle fill="#D7DADB" cx="359.9" cy="215.4" r="4.7"/>
			</g>
			<g>
				<circle fill="#D7DADB" cx="336.3" cy="215.4" r="4.7"/>
			</g>
		</g>
		<g>
			<g>
				<circle fill="#D7DADB" cx="572.5" cy="191.8" r="4.7"/>
			</g>
			<g>
				<circle fill="#D7DADB" cx="548.8" cy="191.8" r="4.7"/>
			</g>
			<g>
				<circle fill="#D7DADB" cx="525.2" cy="191.8" r="4.7"/>
			</g>
			<g>
				<circle fill="#D7DADB" cx="501.6" cy="191.8" r="4.7"/>
			</g>
			<g>
				<circle fill="#D7DADB" cx="478" cy="191.8" r="4.7"/>
			</g>
			<g>
				<circle fill="#D7DADB" cx="454.4" cy="191.8" r="4.7"/>
			</g>
			<g>
				<circle fill="#D7DADB" cx="430.7" cy="191.8" r="4.7"/>
			</g>
			<g>
				<circle fill="#D7DADB" cx="407.1" cy="191.8" r="4.7"/>
			</g>
			<g>
				<circle fill="#D7DADB" cx="383.5" cy="191.8" r="4.7"/>
			</g>
			<g>
				<circle fill="#D7DADB" cx="359.9" cy="191.8" r="4.7"/>
			</g>
			<g>
				<circle fill="#D7DADB" cx="336.3" cy="191.8" r="4.7"/>
			</g>
		</g>
		<g>
			<g>
				<circle fill="#D7DADB" cx="572.5" cy="168.2" r="4.7"/>
			</g>
			<g>
				<circle fill="#D7DADB" cx="548.8" cy="168.2" r="4.7"/>
			</g>
			<g>
				<circle fill="#D7DADB" cx="525.2" cy="168.2" r="4.7"/>
			</g>
			<g>
				<circle fill="#D7DADB" cx="501.6" cy="168.2" r="4.7"/>
			</g>
			<g>
				<circle fill="#D7DADB" cx="478" cy="168.2" r="4.7"/>
			</g>
			<g>
				<circle fill="#D7DADB" cx="454.4" cy="168.2" r="4.7"/>
			</g>
			<g>
				<circle fill="#D7DADB" cx="430.7" cy="168.2" r="4.7"/>
			</g>
			<g>
				<circle fill="#D7DADB" cx="407.1" cy="168.2" r="4.7"/>
			</g>
			<g>
				<circle fill="#D7DADB" cx="383.5" cy="168.2" r="4.7"/>
			</g>
			<g>
				<circle fill="#D7DADB" cx="359.9" cy="168.2" r="4.7"/>
			</g>
			<g>
				<circle fill="#D7DADB" cx="336.3" cy="168.2" r="4.7"/>
			</g>
		</g>
		<g>
			<g>
				<circle fill="#D7DADB" cx="572.5" cy="144.6" r="4.7"/>
			</g>
			<g>
				<circle fill="#D7DADB" cx="548.8" cy="144.6" r="4.7"/>
			</g>
			<g>
				<circle fill="#D7DADB" cx="525.2" cy="144.6" r="4.7"/>
			</g>
			<g>
				<circle fill="#D7DADB" cx="501.6" cy="144.6" r="4.7"/>
			</g>
			<g>
				<circle fill="#D7DADB" cx="478" cy="144.6" r="4.7"/>
			</g>
			<g>
				<circle fill="#D7DADB" cx="454.4" cy="144.6" r="4.7"/>
			</g>
			<g>
				<circle fill="#D7DADB" cx="430.7" cy="144.6" r="4.7"/>
			</g>
			<g>
				<circle fill="#D7DADB" cx="407.1" cy="144.6" r="4.7"/>
			</g>
			<g>
				<circle fill="#D7DADB" cx="383.5" cy="144.6" r="4.7"/>
			</g>
			<g>
				<circle fill="#D7DADB" cx="359.9" cy="144.6" r="4.7"/>
			</g>
			<g>
				<circle fill="#D7DADB" cx="336.3" cy="144.6" r="4.7"/>
			</g>
		</g>
		<g>
			<g>
				<circle fill="#D7DADB" cx="572.5" cy="120.9" r="4.7"/>
			</g>
			<g>
				<circle fill="#D7DADB" cx="548.8" cy="120.9" r="4.7"/>
			</g>
			<g>
				<circle fill="#D7DADB" cx="525.2" cy="120.9" r="4.7"/>
			</g>
			<g>
				<circle fill="#D7DADB" cx="501.6" cy="120.9" r="4.7"/>
			</g>
			<g>
				<circle fill="#D7DADB" cx="478" cy="120.9" r="4.7"/>
			</g>
			<g>
				<circle fill="#D7DADB" cx="454.4" cy="120.9" r="4.7"/>
			</g>
			<g>
				<circle fill="#D7DADB" cx="430.7" cy="120.9" r="4.7"/>
			</g>
			<g>
				<circle fill="#D7DADB" cx="407.1" cy="120.9" r="4.7"/>
			</g>
			<g>
				<circle fill="#D7DADB" cx="383.5" cy="120.9" r="4.7"/>
			</g>
			<g>
				<circle fill="#D7DADB" cx="359.9" cy="120.9" r="4.7"/>
			</g>
			<g>
				<circle fill="#D7DADB" cx="336.3" cy="120.9" r="4.7"/>
			</g>
		</g>
		<g>
			<g>
				<circle fill="#D7DADB" cx="572.5" cy="97.3" r="4.7"/>
			</g>
			<g>
				<circle fill="#D7DADB" cx="548.8" cy="97.3" r="4.7"/>
			</g>
			<g>
				<circle fill="#D7DADB" cx="525.2" cy="97.3" r="4.7"/>
			</g>
			<g>
				<circle fill="#D7DADB" cx="501.6" cy="97.3" r="4.7"/>
			</g>
			<g>
				<circle fill="#D7DADB" cx="478" cy="97.3" r="4.7"/>
			</g>
			<g>
				<circle fill="#D7DADB" cx="454.4" cy="97.3" r="4.7"/>
			</g>
			<g>
				<circle fill="#D7DADB" cx="430.7" cy="97.3" r="4.7"/>
			</g>
			<g>
				<circle fill="#D7DADB" cx="407.1" cy="97.3" r="4.7"/>
			</g>
			<g>
				<circle fill="#D7DADB" cx="383.5" cy="97.3" r="4.7"/>
			</g>
			<g>
				<circle fill="#D7DADB" cx="359.9" cy="97.3" r="4.7"/>
			</g>
			<g>
				<circle fill="#D7DADB" cx="336.3" cy="97.3" r="4.7"/>
			</g>
		</g>
		<g>
			<g>
				<circle fill="#D7DADB" cx="572.5" cy="73.7" r="4.7"/>
			</g>
			<g>
				<circle fill="#D7DADB" cx="548.8" cy="73.7" r="4.7"/>
			</g>
			<g>
				<circle fill="#D7DADB" cx="525.2" cy="73.7" r="4.7"/>
			</g>
			<g>
				<circle fill="#D7DADB" cx="501.6" cy="73.7" r="4.7"/>
			</g>
			<g>
				<circle fill="#D7DADB" cx="478" cy="73.7" r="4.7"/>
			</g>
			<g>
				<circle fill="#D7DADB" cx="454.4" cy="73.7" r="4.7"/>
			</g>
			<g>
				<circle fill="#D7DADB" cx="430.7" cy="73.7" r="4.7"/>
			</g>
			<g>
				<circle fill="#D7DADB" cx="407.1" cy="73.7" r="4.7"/>
			</g>
			<g>
				<circle fill="#D7DADB" cx="383.5" cy="73.7" r="4.7"/>
			</g>
			<g>
				<circle fill="#D7DADB" cx="359.9" cy="73.7" r="4.7"/>
			</g>
			<g>
				<circle fill="#D7DADB" cx="336.3" cy="73.7" r="4.7"/>
			</g>
		</g>
	</g>
	<path fill="#D7DADB" d="M572.6,54.8c-2.6,0-4.7-2.1-4.7-4.7c0-2.6,2.1-4.7,4.7-4.7c2.6,0,4.7,2.1,4.7,4.7
		C577.3,52.7,575.2,54.8,572.6,54.8"/>
	<path fill="#D7DADB" d="M549,54.8c-2.6,0-4.7-2.1-4.7-4.7c0-2.6,2.1-4.7,4.7-4.7c2.6,0,4.7,2.1,4.7,4.7
		C553.7,52.7,551.6,54.8,549,54.8"/>
	<path fill="#D7DADB" d="M525.4,54.8c-2.6,0-4.7-2.1-4.7-4.7c0-2.6,2.1-4.7,4.7-4.7c2.6,0,4.7,2.1,4.7,4.7
		C530.1,52.7,528,54.8,525.4,54.8"/>
	<path fill="#D7DADB" d="M501.8,54.8c-2.6,0-4.7-2.1-4.7-4.7c0-2.6,2.1-4.7,4.7-4.7c2.6,0,4.7,2.1,4.7,4.7
		C506.5,52.7,504.4,54.8,501.8,54.8"/>
	<path fill="#D7DADB" d="M478.1,54.8c-2.6,0-4.7-2.1-4.7-4.7c0-2.6,2.1-4.7,4.7-4.7c2.6,0,4.7,2.1,4.7,4.7
		C482.9,52.7,480.8,54.8,478.1,54.8"/>
	<path fill="#D7DADB" d="M454.5,54.8c-2.6,0-4.7-2.1-4.7-4.7c0-2.6,2.1-4.7,4.7-4.7c2.6,0,4.7,2.1,4.7,4.7
		C459.3,52.7,457.1,54.8,454.5,54.8"/>
	<path fill="#D7DADB" d="M430.9,54.8c-2.6,0-4.7-2.1-4.7-4.7c0-2.6,2.1-4.7,4.7-4.7c2.6,0,4.7,2.1,4.7,4.7
		C435.6,52.7,433.5,54.8,430.9,54.8"/>
	<path fill="#D7DADB" d="M407.3,54.8c-2.6,0-4.7-2.1-4.7-4.7c0-2.6,2.1-4.7,4.7-4.7c2.6,0,4.7,2.1,4.7,4.7
		C412,52.7,409.9,54.8,407.3,54.8"/>
	<path fill="#D7DADB" d="M383.7,54.8c-2.6,0-4.7-2.1-4.7-4.7c0-2.6,2.1-4.7,4.7-4.7c2.6,0,4.7,2.1,4.7,4.7
		C388.4,52.7,386.3,54.8,383.7,54.8"/>
	<path fill="#D7DADB" d="M360.1,54.8c-2.6,0-4.7-2.1-4.7-4.7c0-2.6,2.1-4.7,4.7-4.7c2.6,0,4.7,2.1,4.7,4.7
		C364.8,52.7,362.7,54.8,360.1,54.8"/>
	<path fill="#D7DADB" d="M336.4,54.8c-2.6,0-4.7-2.1-4.7-4.7c0-2.6,2.1-4.7,4.7-4.7c2.6,0,4.7,2.1,4.7,4.7
		C341.2,52.7,339,54.8,336.4,54.8"/>
	<g>
		<circle fill="#D7DADB" cx="572.6" cy="26.5" r="4.7"/>
	</g>
	<g>
		<circle fill="#D7DADB" cx="549" cy="26.5" r="4.7"/>
	</g>
	<g>
		<circle fill="#D7DADB" cx="525.4" cy="26.5" r="4.7"/>
	</g>
	<g>
		<circle fill="#D7DADB" cx="501.8" cy="26.5" r="4.7"/>
	</g>
	<g>
		<circle fill="#D7DADB" cx="478.1" cy="26.5" r="4.7"/>
	</g>
	<g>
		<circle fill="#D7DADB" cx="454.5" cy="26.5" r="4.7"/>
	</g>
	<g>
		<circle fill="#D7DADB" cx="430.9" cy="26.5" r="4.7"/>
	</g>
	<g>
		<circle fill="#D7DADB" cx="407.3" cy="26.5" r="4.7"/>
	</g>
	<g>
		<circle fill="#D7DADB" cx="383.7" cy="26.5" r="4.7"/>
	</g>
	<g>
		<circle fill="#D7DADB" cx="360.1" cy="26.5" r="4.7"/>
	</g>
	<g>
		<circle fill="#D7DADB" cx="336.4" cy="26.5" r="4.7"/>
	</g>
	<g>
		<circle fill="#D7DADB" cx="572.5" cy="4.7" r="4.7"/>
	</g>
	<g>
		<circle fill="#D7DADB" cx="548.9" cy="4.7" r="4.7"/>
	</g>
	<g>
		<circle fill="#D7DADB" cx="525.3" cy="4.7" r="4.7"/>
	</g>
	<g>
		<circle fill="#D7DADB" cx="501.7" cy="4.7" r="4.7"/>
	</g>
	<g>
		<circle fill="#D7DADB" cx="478.1" cy="4.7" r="4.7"/>
	</g>
	<g>
		<circle fill="#D7DADB" cx="454.4" cy="4.7" r="4.7"/>
	</g>
	<g>
		<circle fill="#D7DADB" cx="430.8" cy="4.7" r="4.7"/>
	</g>
	<g>
		<circle fill="#D7DADB" cx="407.2" cy="4.7" r="4.7"/>
	</g>
	<g>
		<circle fill="#D7DADB" cx="383.6" cy="4.7" r="4.7"/>
	</g>
	<g>
		<circle fill="#D7DADB" cx="360" cy="4.7" r="4.7"/>
	</g>
	<g>
		<circle fill="#D7DADB" cx="336.4" cy="4.7" r="4.7"/>
	</g>
</g>
</svg>
