<!-- Generator: Adobe Illustrator 18.0.0, SVG Export Plug-In  -->
<svg version="1.1"
	 xmlns="http://www.w3.org/2000/svg" xmlns:xlink="http://www.w3.org/1999/xlink" xmlns:a="http://ns.adobe.com/AdobeSVGViewerExtensions/3.0/"
	 x="0px" y="0px" width="499.1px" height="326.3px" viewBox="0 0 499.1 326.3" enable-background="new 0 0 499.1 326.3"
	 xml:space="preserve">
<defs>
</defs>
<path fill="#F2F2F2" d="M112.7,304.3c0.4,3-1.1,6.5-0.4,9.5c1.9,8.2,9.5,5.4,15.1,7c5.6,1.6,11.1,5.6,17.4,5.5
	c4.9-0.1,14.6-3.3,19-5.6c3.3-1.7,6.6-6.8,10.2-7.5c2.3-0.4,5.3,1.8,7.7,1.8c0.8,0,1.5-0.4,2.2-0.5c2.2-0.6,4.4-1.1,6.7-1.7
	c0.7-0.2,1.5-0.6,2.2-0.6c3.9,0,11.6,1,15.3,2.1c4.9,1.3,9.3,9.7,9.6,9.7c2.1,0.1,4.7-4.1,6.7-4.5c3-0.7,6.8,2.3,9.9,1.8
	c6.7-1.1,12.8-7.7,20-9c3.8-0.7,4.6,2.1,7.6,3.3c3.8,1.4,14,0.4,17.6-1.3c2.1-1,3.6-3.5,5.6-4.6c6.2-3.5,14.2-5.1,21-7
	c3.1-0.8,7,0.5,9.9-0.5c2.4-0.9,4.1-5.8,6.6-6.3c1.5-0.3,2.8,1.5,4.4,1.6c4.9,0.4,19-0.6,24.1-1.5c4.6-0.8,6-5,9.9-6.3
	c7.5-2.4,32.1-0.1,41.4-0.1c32.2-0.2,64.4-0.8,96.6-1.6c-1.1-2.9-5.4-6.7-5.7-9.3c-0.2-2,3.2-4.4,3.1-6.4c0-1.6-1.9-7.7-2.4-9.4
	c-1.1-3.3-6.2-5.9-6.8-9.3c-0.3-1.8,1.9-4.5,2-6.4c0.9-10.1-1.6-21.7-1.8-31.9c-0.9-37.8-1.8-75.6-2.7-113.4
	c-0.5-21.6-1-43.2-1.6-64.8c-0.2-7.2-0.3-14.4-0.5-21.6c-0.1-3.6-0.3-10.8-0.3-10.8l0-0.1c-61.9,1.5-123.8,1.9-185.7,1.1
	c-47.5-0.6-94.9-1.9-142.4-4c-3.6-0.1-15.5-1-27.7-1.8c0.2,0.3,0.4,0.6,0.7,1c0.2,0.4,0.9,0.8,0.7,1.2c-0.9,1.7-4.6,2.5-5.4,4.5
	c-0.5,1.4,3.9,0.3,4.1,1.8c0.1,1.6-1.5,3.1-1.3,4.7c0.5,2.8,6.8,9.2,6.8,9.8c0.1,1.6-2.1,3.3-1.3,4.7c2.2,3.8,8.8-14.8,10.5-1.1
	c0.1,1.1-1.3,2-1.2,3.1c0.6,4.2,6.6,8.1,4,12.6c-2.1,3.8-3.1-1.5-6.1-1.6c-0.5,0-1.6-0.6-1.6-0.1c0.3,3.9,8.9,6.5,4.7,12.8l-3.1-0.2
	c-0.5-0.3-0.7-1.1-1-1.6c-3-4.9-0.5,2.3-2.2,1.5c-1.3-0.6-0.5-5.8-1.8-6.4c-4.6-2.1-5.4,6.5-4.6,9.2c1.2,4.4,6.2-1.3,7.4-1.2
	c2.2,0.1-0.1,5.3,1.8,6.4c2.5,1.4,7.6,3.3,9.2,6.7c3.9,8.7-9.9,0-9.9,10.6c0,3.4,8.3,13,11,13.1c-0.3-0.8-0.6-1.6-1-2.4
	c-0.5-1.3-11.4-13.2-3.6-15.1c4.4-1.1,4.3,16.6,9.7,19.3c1.3,0.6,3-0.5,4.2,0.2c4.5,2.5-5.3,5.8-5.5,6.1c-0.1,0.1-7.1,16.6-7.1,17
	c0.1,1.7,2.1,3.1,1.9,4.8c-0.2,2-4.6,4.2-4.5,6.1l3.4,3.3c0.7,1.9-2.3,2.1-2.6,3c-0.4,1,4.1,16.5,4.5,19.1c0.9,5.8-5.1,2.6-6.7,6
	c0,0,2,3.2,2,3.2c-2.1,5.5-5.6-5-8.5-1.2c-2.1,2.8-7.2,20.1-13.7,19.1c-3.1-0.5-2.7-9.9-8.8-6.7c-1.5,0.8-3,9.7-3.1,9.3
	c-0.8-1.6,0.9-4.2-0.5-5.3c-1.3-1.1-4.7,1.9-4.7,1.9s4-4.7,4.7-7.6c0.1-0.5,0.6-1.6,0.1-1.6c-1.8-0.1-6.3,5.8-8.4,6.7
	c-0.1,0.1-0.5,0.3-0.4,0.2c1.5-5.3,5-2.9,7.7-6.9c1.6-2.4-0.1-7,1.5-9.4c1-1.5,4.4-1.4,5.5-2.9c1.1-1.5-0.1-4.9,1.7-5.2
	c1.6-0.3,2.7,6.1,2.5,7c-0.3,1.6-3.4,3-3.4,4.6l1.9,4.8c0.3,0.7,0.6,2.5,1.2,2c4.8-3.2,1.1-5.8,1.3-9.8c0.2-4.7,6.6-7.3,9.1-10.6
	c0.1-0.1-2.7,5.4-3.6,7.7c-0.7,1.8,4.6,5.1,6.2,5c5.2-0.4-0.3-4.5,0.3-6.3c0.3-0.9,1.8-0.7,2.2-1.5c0.8-1.4-1.1-4.8-0.8-6.3
	c0.4-2.2,2.5-5,3.5-7c0.4-0.8,1.3-1.5,1.2-2.3c-0.1-1.2-2.6-0.6-3.1-1.7c-0.6-1.4,1.7-4.1,0.2-4.7c-0.8-0.3-1.5,1-2.2,1.5
	c-0.9,0.6-9.3,5.3-4.9,1.4c0.6-0.5,1.6-0.8,1.7-1.5c0.1-1.2-2.5-0.7-3.1-1.7l-0.8-4.8c1-5.5,2.9,7,5.8,1c1.7-3.4-2.4-6.2-2.3-8.8
	c0-1.2,1.9,1.7,3.1,1.7l2.3-3.1c3.6-2.1,2.9,1.1,6.4-1.3c0.1-0.1-2.5-14.7-7-16.6c-1.5-0.7,2.7,4.3,0.8,7.7c-1.5,2.7-2.9-1.1-3.9-1
	c-2.4,0.3-7.5,15.2-9.3,16.9c-3.1,2.9-8.9,2.5-12,5.7c-3.9,4.1-6.6,10.7-9.3,15.6c-0.8,1.4-3.1,2.8-2.4,4.3c2.4,5,10.7-1.4,13.2-2.8
	c1.2-0.7,4.2-2.5,4.1-1.1c-0.1,1.9-20.2,12.5-20.7,6.8c-0.9-10.7,14.8-20.8,18.2-29.6c1-2.6,4.1-12.2,5.6-12.3
	c2.7-0.2-1.5,9.4,1.2,11.6c0.6,0.5,0.6-1.4,1-2.2c2-4.5,4.9-7.7,7.1-11.6c5.9-10.4-2.4-11.8-6.3-22.4c-1-2.6,6.5-6.9,1.2-7.4
	c-12.5-1.3,0.5,13.1-5.7,15.1c-1.1,0.3,0.8-2.1,1.2-3.1c0.5-1.3-5.8-7.9-7-8.2c-5.2-1.4-1.1,6.3-3.5,6.2c-1.5-0.1-1.4-5.6-1.8-6.4
	c-0.8-1.8-7-4.5-7.1-5.1c-0.2-1.5,4.8-2.9,3.3-3c-2.6-0.1-6.2,5.1-8.7,5.8C88.7,82,58,75.7,51.2,74.1c-6.5-1.5-9.9-4.7-15.6-7.7
	c-4.8-2.5-10.8-3-15.4-5.8c-5.5-3.2-9.5-11.1-16.9-10.3c-5.2,0.6,1.2,4.7,1.4,6c0.8,5.9-6.2,13-4.4,17.8C2,79.1,2.3,96,5.9,99.1
	c6.1,5.3,11.8,12.1,13.4,21.5c1,5.8-1.2,24.7,1.3,28.5c0.6,0.9,2.6-0.7,3.2,0.2c1.4,2.4-2.5-0.3,0.7,4.8c4,6.2,4.1,19.4,3.6,26.6
	c-0.1,0.9-0.9,2.2-0.2,2.6c0.9,0.5,1.1-5.2,5.7-4.9c4.7,0.3,3.2,6.7,5.9,8.3c0.8,0.5,2.5-1.8,3.3-1.4c0.5,0.3-0.5,1.3-0.1,1.6
	c0,0,5,0.3,5,0.3c0.4,0.2,0.6,0.9,0.3,1.1c-2.4,2.7-11.8,2.7-13.3,5.9c-0.3,0.6,2.3,3.7,1.8,4.9c-0.4,0.9-1.8-0.5-2.6-1
	c-1.1-0.6-3.7-9.9-4.5-5.8c-0.6,2.9,1.1,7.7,1.5,10.6c1.9,13.8,8.5,4.6,13.7,6.1c3.2,1,3.3,4.9,7.3,5.2c1.2,0.1-2.3,2-3.3,1.4
	c-1.1-0.6-0.7-3.2-2-3.3c-7.8-0.5-3.3,8.6-3.8,9.2c-0.7,0.9-2.6-2.9-3.2-1.8c-0.4,0.9,2.6,5.4,2.9,6.5c1.1,4.8-4.6,5.8-0.7,11
	c0.4,0.5,0.7,0.9,1,1.2c2.6,0.5,2.2,2.3,0,0c-0.4-0.1-0.9-0.1-1.4-0.1c-3.9,0-1.9,3.6-6.4,3.3c0,0-0.3-1.6-0.4-2.4
	c-0.7-4.2,0.3-20.4-0.3-21.3c-3.3-5.5-2.6,17.5-2.6,17.9c-0.1,3.3,0.4,7.1-0.3,10.3c-0.3,1.5-2.9,3.3-1.7,4.1c1.6,1,3.7-2.6,4.9-2.3
	c1.5,0.3,3.1,4.3,4.5,6c0.1,0.1,0.1,0.2,0.2,0.2c0.1,0.1,0.2,0.3,0.4,0.4c3.1,2.1,5.5-2.8,7.8-2.7c0.9,0,1.2,1.5,2.1,1.7
	c1.6,0.4,3.9-2.9,4.5-2.9c0.2,0,3.4,3.4,5.9,4.7c2.7,0,5.7-1,8.1-0.7c0.8-0.1,1.5-0.1,2.1,0.2c3.3,1.4,5.6,9.8,9.7,11.4
	c0.8-0.1,1.5-0.2,2.3-0.4c1-0.7,1.9-1.7,2.8-1.2c0.2,0.1,0.3,0.3,0.3,0.6c2.6-0.5,5.1-0.7,7.3,0.3
	C107.6,272.5,111,289.6,112.7,304.3"/>
</svg>
