<!-- Generator: Adobe Illustrator 18.0.0, SVG Export Plug-In  -->
<svg version="1.1"
	 xmlns="http://www.w3.org/2000/svg" xmlns:xlink="http://www.w3.org/1999/xlink" xmlns:a="http://ns.adobe.com/AdobeSVGViewerExtensions/3.0/"
	 x="0px" y="0px" width="527.4px" height="346.2px" viewBox="0 0 527.4 346.2" enable-background="new 0 0 527.4 346.2"
	 xml:space="preserve">
<defs>
</defs>
<path fill="#D1D3D4" d="M157.5,148.1"/>
<path fill="#D1D3D4" d="M135.8,114.4"/>
<polyline fill="#136A92" points="134,31.4 133.4,31.8 132.8,32.1 132.3,32.3 131.6,33.3 131.4,33.4 131.3,33.6 131.4,33.9 
	131.9,34.8 131.9,34.9 131.9,35.1 131.7,35.1 131.6,35.5 131.7,36 131.7,36.4 132,36.6 132.5,37.2 133.4,38.3 133.4,38.8 
	133.2,39.2 132.6,39.8 132.3,41 132.3,41.6 132.3,41.8 132.9,42.2 132.8,42.9 131.6,44 131.6,44.1 131.2,44.4 130.7,44.7 130.6,45 
	130.6,45.2 130.6,45.6 130.4,47.1 130.9,47.7 130.9,48 131,48.4 131.2,48.6 131.3,49.3 131.3,49.5 131.3,49.6 131.2,49.9 
	130.7,50.2 130,50.1 128.5,50.4 127.9,50.4 127.7,50.4 127.6,50.4 127.3,50.5 126.7,50.4 126.4,50.2 126.1,50.1 126.4,49 
	125.7,48.9 125.1,48.3 124.9,48.6 124.3,48.6 124.9,47.4 124.8,47 124.3,46.8 123.7,47.1 123,47.4 122.4,47.6 120.2,47.1 
	118.8,46.8 118.5,46.8 118.4,46.8 118.1,46.7 117,45.6 116.4,45 116.3,44.9 116,44.7 114.7,44.3 113.6,43.8 113,43.2 112.7,42.9 
	112.3,42.7 112.1,42.4 112,42.1 111.8,41.9 111.8,41.8 111.7,41.8 111.2,40.6 111.1,40.1 111.2,39.7 111.2,39.5 111.4,39.1 
	110.9,38.6 110.8,38.2 110.5,37.7 110.7,37.3 110.8,36.9 110.8,36.4 110.1,35.7 109.5,35.7 109.3,35.7 109.2,35.4 109.2,34.8 
	109.6,33.9 110.5,32.8 110.5,32.7 112.1,32.5 112.7,32.7 113,32.8 113.2,32.8 114.5,32.7 114.8,33.3 115.1,33.6 115.1,33.9 
	114.8,34.3 114.8,34.9 115.6,35.2 116.1,35.4 116.3,35.4 117.2,36.3 117.3,36.6 117.3,36.7 117.6,37.3 117.8,37.5 118.4,37.7 
	118.5,37.9 119,38 119.6,38.2 120.2,38.2 120.8,38.2 121.2,38 121.3,37.5 121.1,37 120.8,36.7 120.5,36.6 120.3,36.6 120.3,36.4 
	119.6,36.6 119.3,36.1 119,35.8 118.7,35.5 119.1,35.2 119.3,34.9 118.2,33.7 117.9,33.7 117.9,33 118.4,32.7 119.3,32 119.9,31.2 
	119.9,30.8 120.2,30.2 120.6,29.7 120.8,29.7 121.3,29.1 121.6,28.7 122.4,28.1 123.7,27.1 124.2,26.2 124,25.9 124.9,25.6 
	125.4,25.4 125.5,25.3 126,25.3 126.1,25.3 126.8,25.3 127.4,25.4 127.6,25.4 127.9,25.6 130,26.6 130.1,26.8 130.3,26.8 
	130.3,26.9 130.6,27.1 131.6,27.8 131.7,27.9 131.9,28.1 132,28.4 134.1,29.4 "/>
<polygon fill="#136A92" points="111.1,27.8 112.4,28.8 113.2,29.7 113.3,29.9 113.8,30.6 114.7,31.8 113.9,31.8 113,31.5 
	111.1,30.2 109.6,29.3 108.6,28.5 107.8,27.8 107.7,27.6 107.4,27.3 107.5,26.9 108.7,26.9 108.9,26.9 109.3,27.2 109.6,27.3 
	110.2,27.3 110.4,27.3 110.5,27.3 "/>
<polygon fill="#136A92" points="119.4,24.8 119.7,24.5 120.3,24.4 120.5,24.7 120.5,26.8 120,27.6 119.6,27.9 118.4,28.4 
	118.4,28.1 118.8,27.5 118.7,27.2 118.2,26.6 116.9,26.3 118.5,24.8 "/>
<polyline fill="#136A92" points="134,31.4 133.4,31.8 132.8,32.1 132.3,32.3 131.6,33.3 131.4,33.4 131.3,33.6 131.4,33.9 
	131.9,34.8 131.9,34.9 131.9,35.1 131.7,35.1 131.6,35.5 131.7,36 131.7,36.4 132,36.6 132.5,37.2 133.4,38.3 133.4,38.8 
	133.2,39.2 132.6,39.8 132.3,41 132.3,41.6 132.3,41.8 132.9,42.2 132.8,42.9 131.6,44 131.6,44.1 131.2,44.4 130.7,44.7 130.6,45 
	130.6,45.2 130.6,45.6 130.4,47.1 130.9,47.7 130.9,48 131,48.4 131.2,48.6 131.3,49.3 131.3,49.5 131.3,49.6 131.2,49.9 
	130.7,50.2 130,50.1 128.5,50.4 127.9,50.4 127.7,50.4 127.6,50.4 127.3,50.5 126.7,50.4 126.4,50.2 126.1,50.1 126.4,49 
	125.7,48.9 125.1,48.3 124.9,48.6 124.3,48.6 124.9,47.4 124.8,47 124.3,46.8 123.7,47.1 123,47.4 122.4,47.6 120.2,47.1 
	118.8,46.8 118.5,46.8 118.4,46.8 118.1,46.7 117,45.6 116.4,45 116.3,44.9 116,44.7 114.7,44.3 113.6,43.8 113,43.2 112.7,42.9 
	112.3,42.7 112.1,42.4 112,42.1 111.8,41.9 111.8,41.8 111.7,41.8 111.2,40.6 111.1,40.1 111.2,39.7 111.2,39.5 111.4,39.1 
	110.9,38.6 110.8,38.2 110.5,37.7 110.7,37.3 110.8,36.9 110.8,36.4 110.1,35.7 109.5,35.7 109.3,35.7 109.2,35.4 109.2,34.8 
	109.6,33.9 110.5,32.8 110.5,32.7 112.1,32.5 112.7,32.7 113,32.8 113.2,32.8 114.5,32.7 114.8,33.3 115.1,33.6 115.1,33.9 
	114.8,34.3 114.8,34.9 115.6,35.2 116.1,35.4 116.3,35.4 117.2,36.3 117.3,36.6 117.3,36.7 117.6,37.3 117.8,37.5 118.4,37.7 
	118.5,37.9 119,38 119.6,38.2 120.2,38.2 120.8,38.2 121.2,38 121.3,37.5 121.1,37 120.8,36.7 120.5,36.6 120.3,36.6 120.3,36.4 
	119.6,36.6 119.3,36.1 "/>
<polyline fill="#136A92" points="111.1,27.8 112.4,28.8 113.2,29.7 113.3,29.9 113.8,30.6 114.7,31.8 113.9,31.8 113,31.5 
	111.1,30.2 109.6,29.3 108.6,28.5 107.8,27.8 107.7,27.6 107.4,27.3 107.5,26.9 108.7,26.9 108.9,26.9 109.3,27.2 109.6,27.3 
	110.2,27.3 110.4,27.3 110.5,27.3 111.1,27.8 "/>
<polyline fill="#136A92" points="119.4,24.8 119.7,24.5 120.3,24.4 120.5,24.7 120.5,26.8 120,27.6 119.6,27.9 118.4,28.4 
	118.4,28.1 118.8,27.5 118.7,27.2 118.2,26.6 116.9,26.3 118.5,24.8 119.4,24.8 "/>
<path fill="#E6E7E8" d="M119.1,322.9c-1.8-15.7-5.4-33.7-21.1-41.2c-2.3-1.1-5-0.8-7.7-0.3c0-0.3-0.1-0.5-0.3-0.6
	c-1-0.5-1.9,0.5-2.9,1.3c-0.8,0.2-1.6,0.3-2.4,0.4c-4.3-1.7-6.8-10.6-10.2-12c-0.6-0.3-1.4-0.3-2.2-0.2c-2.6-0.3-5.7,0.7-8.6,0.8
	c-2.7-1.4-6-4.9-6.2-4.9c-0.7,0-3.1,3.5-4.8,3.1c-0.9-0.3-1.3-1.7-2.2-1.8c-2.5-0.2-5,5.1-8.2,2.8c-0.1-0.1-0.3-0.3-0.4-0.4
	c-0.1-0.1-0.2-0.2-0.2-0.3c-1.4-1.8-3.1-6.1-4.7-6.4c-1.2-0.3-3.5,3.6-5.2,2.5c-1.3-0.9,1.5-2.8,1.8-4.4c0.7-3.4,0.2-7.5,0.3-10.9
	c0-0.5-0.7-24.9,2.8-19c0.6,1-0.4,18.2,0.3,22.6c0.1,0.8,0.4,2.5,0.4,2.5c4.8,0.3,2.6-3.5,6.7-3.5c0.6,0,1.1,0,1.5,0.1
	c2.4,2.5,2.7,0.6,0,0c-0.3-0.3-0.7-0.7-1.1-1.2c-4.1-5.5,1.9-6.6,0.7-11.7c-0.2-1.1-3.5-6-3-6.9c0.6-1.2,2.5,2.9,3.3,1.9
	c0.1-0.2,0.1-3.1,0.7-5.6"/>
<path fill="#E6E7E8" d="M119.1,322.9c0.4,3.2-1.2,6.9-0.5,10c2,8.7,10,5.7,16,7.4c6,1.7,11.8,5.9,18.4,5.8
	c5.2-0.1,15.4-3.5,20.1-5.9c3.5-1.8,6.9-7.3,10.8-8c2.4-0.4,5.6,1.9,8.1,2c0.8,0,1.6-0.4,2.3-0.6c2.4-0.6,4.7-1.2,7-1.8
	c0.8-0.2,1.5-0.6,2.4-0.6c4.1,0,12.2,1.1,16.2,2.2c5.2,1.4,9.8,10.3,10.2,10.3c2.2,0.1,4.9-4.3,7.1-4.8c3.2-0.7,7.2,2.5,10.4,1.9
	c7.1-1.1,13.6-8.2,21.2-9.6c4-0.7,4.8,2.3,8.1,3.5c4,1.5,14.8,0.5,18.6-1.3c2.2-1,3.8-3.7,5.9-4.9c6.5-3.7,15-5.4,22.2-7.4
	c3.3-0.9,7.4,0.5,10.4-0.6c2.6-0.9,4.4-6.1,7-6.6c1.6-0.3,3,1.6,4.6,1.7c5.2,0.5,20.1-0.6,25.5-1.6c4.8-0.8,6.3-5.3,10.4-6.7
	c7.9-2.5,34-0.1,43.8-0.2c34-0.3,68-0.8,102.1-1.7c-1.1-3-5.7-7.1-6-9.9c-0.2-2.1,3.3-4.6,3.3-6.8c0-1.6-2-8.2-2.6-10
	c-1.1-3.5-6.5-6.3-7.1-9.9c-0.3-1.9,2-4.8,2.1-6.7c0.9-10.3-1.5-22.2-1.9-32.8h-88.4H139h-10.1L46,229.5"/>
<path fill="#D1D3D4" d="M49.9,200.6c-3.5,2.1-11.6,2.5-13.1,5.5c-0.3,0.6,2.4,4,2,5.1c-0.4,0.9-1.9-0.5-2.8-1
	c-1.2-0.7-3.9-10.5-4.7-6.2c-0.6,3.1,1.1,8.2,1.6,11.3c2,14.6,9,4.9,14.5,6.5c3.4,1,3.5,5.2,7.7,5.5c1.3,0.1-2.4,2.1-3.5,1.5
	c-1.2-0.7-0.7-3.4-2.1-3.5c-3.9-0.2-4.9,1.8-4.9,4.2h470.7c-0.2-9.3-0.4-18.7-0.7-28.1l0-0.7"/>
<path fill="#D1D3D4" d="M155.4,71.9"/>
<path fill="#B3B4B4" d="M146.2,43.1c-0.6,0-1.7-0.6-1.6-0.1"/>
<path fill="#B3B4B4" d="M512.5,114.3c0.7,28.6,1.3,57.2,2,85.8c0,0.2,0,0.4,0,0.7l-303.2,0h-68.2H49.6c0.5-0.3,1-0.6,1.3-1
	c0.3-0.3,0.1-1-0.3-1.2c0,0-5.3-0.3-5.3-0.3c-0.4-0.3,0.6-1.4,0.1-1.7c-0.9-0.5-2.6,2-3.5,1.5c-2.9-1.7-1.3-8.4-6.3-8.8
	c-4.8-0.3-5,5.8-6,5.2c-0.8-0.5,0.1-1.9,0.2-2.8c0.5-7.5,0.4-21.6-3.8-28.2c-3.5-5.4,0.7-2.6-0.8-5.1c-0.6-1-2.8,0.7-3.4-0.2
	c-2.6-4.1-0.3-24.1-1.4-30.2c-0.9-5.3-3.1-9.9-5.9-13.9l131.3,0.2c1.9,5,2.9,10.7,2.8,10.8c-3.7,2.5-3-0.8-6.8,1.4l-2.4,3.2
	c-1.3-0.1-3.2-3.1-3.3-1.8c-0.1,2.7,4.1,5.7,2.4,9.3c-3,6.3-5.1-6.9-6.1-1.1l0.9,5.1c0.7,1.1,3.4,0.6,3.3,1.8c0,0.8-1.2,1.1-1.8,1.6
	c-4.6,4.2,4.1-0.8,5.1-1.4c0.8-0.5,1.5-1.9,2.3-1.6c1.5,0.7-0.9,3.5-0.2,5c0.5,1.1,3.1,0.6,3.3,1.8c0.1,0.9-0.8,1.6-1.2,2.5
	c-1.1,2.1-3.2,5.1-3.7,7.4c-0.3,1.7,1.6,5.2,0.8,6.7c-0.5,0.8-2,0.7-2.3,1.6c-0.6,1.9,5.2,6.3-0.3,6.7c-1.7,0.1-7.3-3.4-6.6-5.3
	c1-2.5,3.9-8.3,3.8-8.2c-2.6,3.5-9.3,6.2-9.6,11.3c-0.2,4.2,3.8,7-1.4,10.4c-0.7,0.5-1-1.4-1.3-2.2l-2-5.1c0.1-1.7,3.3-3.2,3.6-4.8
	c0.2-0.9-0.9-7.7-2.7-7.4c-1.9,0.3-0.6,4-1.8,5.5c-1.2,1.6-4.7,1.4-5.8,3.1c-1.7,2.5,0.1,7.4-1.6,10c-2.9,4.2-6.6,1.7-8.2,7.3
	c0,0.2,0.3-0.1,0.4-0.2c2.2-0.9,7-7.2,8.9-7.1c0.6,0,0,1.1-0.1,1.7c-0.7,3.1-4.9,8.1-4.9,8.1s3.6-3.1,5-2c1.5,1.2-0.3,3.9,0.5,5.6
	c0.2,0.4,1.8-9.1,3.3-9.9c6.5-3.4,6,6.6,9.3,7.1c7,1.1,12.3-17.3,14.5-20.2c3-4.1,6.7,7.1,9,1.2c0,0-2.1-3.4-2.1-3.4
	c1.7-3.6,8-0.3,7.1-6.4c-0.4-2.8-5.2-19.3-4.8-20.3c0.4-1,3.5-1.3,2.8-3.2l-3.6-3.5c-0.1-2.1,4.5-4.4,4.8-6.5c0.2-1.8-1.9-3.3-2-5.1
	c0-0.2,1.8-4.8,3.7-9.2L512.5,114.3z"/>
<path fill="#B3B4B4" d="M135.4,114.3c-0.3,0.6-0.6,1.2-0.9,1.9c-2.4,4.2-5.4,7.5-7.5,12.3c-0.3,0.8-0.4,2.8-1,2.3
	c-2.9-2.4,1.6-12.6-1.3-12.3c-1.6,0.1-4.8,10.3-5.9,13.1c-3.6,9.3-20.2,20-19.2,31.4c0.5,6,21.7-5.3,21.8-7.3
	c0.1-1.5-3.1,0.4-4.3,1.1c-2.6,1.5-11.4,8.3-13.9,3c-0.7-1.6,1.7-3,2.5-4.6c2.9-5.2,5.7-12.3,9.9-16.6c3.3-3.4,9.4-2.9,12.7-6.1
	c1.9-1.8,7.2-17.6,9.8-17.9c1.1-0.2,2.5,3.9,4.1,1"/>
<path fill="#0099CC" d="M124.7,118.5"/>
<g>
	<polyline fill="#136A92" points="119.3,36.1 119,35.8 118.7,35.5 119.1,35.2 119.3,34.9 118.2,33.7 117.9,33.7 117.9,33 
		118.4,32.7 119.3,32 119.9,31.2 119.9,30.8 120.2,30.2 120.6,29.7 120.8,29.7 121.3,29.1 121.6,28.7 122.4,28.1 123.7,27.1 
		124.2,26.2 124,25.9 124.9,25.6 125.4,25.4 125.5,25.3 126,25.3 126.1,25.3 126.8,25.3 127.4,25.4 127.6,25.4 127.9,25.6 130,26.6 
		130.1,26.8 130.3,26.8 130.3,26.9 130.6,27.1 131.6,27.8 131.7,27.9 131.9,28.1 132,28.4 134.1,29.4 	"/>
	<g>
		<path fill="#136A92" d="M144.8,114.1c0.1-0.1,1.2-5.9-3.6-7.9c-1.6-0.7,2.8,4.6,0.9,8.1"/>
		<g>
			<path fill="#136A92" d="M135.5,114.3c6.2-11-3.5-11.2-7.7-22.5c-1-2.8,6.9-7.3,1.2-7.9c-13.2-1.3,0.5,13.9-6.1,16
				c-1.1,0.3,0.9-2.2,1.3-3.3c0.5-1.3-6.2-8.4-7.4-8.7c-5.5-1.5-1.1,6.7-3.7,6.5c-1.6-0.1-1.5-5.9-1.9-6.8c-0.9-1.9-7.4-4.7-7.5-5.4
				c-0.3-1.6,5.1-3.1,3.5-3.2c-2.7-0.1-6.6,5.4-9.2,6.2c-4.3,1.2-36.7-5.5-43.9-7.1c-6.9-1.6-10.5-5-16.5-8.2
				c-5.1-2.6-11.4-3.2-16.3-6.1c-5.8-3.4-10-11.8-17.9-10.9C-2,53.7,4.8,58,5,59.4c0.8,6.2-6.5,13.8-4.7,18.9
				c1.9,5.1,2.2,23.1,6,26.4c3.2,2.8,6.3,5.9,8.8,9.6"/>
			<path fill="#136A92" d="M512.5,114.1c-0.1-2.4-0.1-3.6-0.2-6c-0.6-22.9-1.1-45.8-1.6-68.7c-0.2-7.6-0.4-15.3-0.5-22.9
				c-0.1-3.8-0.3-11.4-0.3-11.4l0-0.1C444.4,6.6,379,7,313.6,6.1C263.4,5.5,213.2,4.1,163.1,2c-3.8-0.2-16.4-1.1-29.3-2
				c0.2,0.3,0.5,0.6,0.8,1.1c0.2,0.4,1,0.8,0.8,1.3c-1,1.8-4.9,2.6-5.7,4.7c-0.6,1.5,4.2,0.3,4.3,1.9c0.1,1.7-1.6,3.3-1.3,5
				c0.5,3,7.2,9.8,7.2,10.4c0.2,1.7-2.2,3.5-1.3,5c2.4,4,9.3-15.7,11.1-1.2c0.2,1.2-1.4,2.1-1.2,3.3c0.7,4.5,7,8.6,4.2,13.3
				c-2.3,4-3.3-1.6-6.4-1.7c-0.6,0-1.7-0.6-1.6-0.1c0.3,4.1,9.4,6.9,4.9,13.6l-3.3-0.2c-0.6-0.4-0.7-1.1-1-1.7
				c-3.1-5.2-0.5,2.4-2.3,1.6c-1.4-0.7-0.5-6.1-1.9-6.8c-4.9-2.2-5.7,6.9-4.9,9.8c1.3,4.6,6.6-1.4,7.8-1.3c2.3,0.1-0.1,5.6,1.9,6.8
				c2.7,1.5,8.1,3.5,9.7,7.1c4.1,9.2-10.5,0-10.5,11.2c0,3.6,8.8,13.8,11.7,13.9c-0.3-0.9-0.7-1.7-1-2.5c-0.6-1.4-12-13.9-3.8-16
				c4.6-1.2,4.5,17.6,10.3,20.5c1.3,0.7,3.1-0.5,4.5,0.2c4.7,2.6-5.6,6.2-5.9,6.4c-0.1,0.1-3.7,8.1-3.6,8.5"/>
		</g>
	</g>
</g>
</svg>
